/* XPM */
static char *_48da8d05c3b4846c5130138fa9c913b4GDdLTCLfyOsxxmK[] = {
/* columns rows colors chars-per-pixel */
"32 32 101 2 ",
"   c None",
".  c #9F2D19",
"X  c #9E2E18",
"o  c #9F2F18",
"O  c #9F2E19",
"+  c #9F2F19",
"@  c #A02E19",
"#  c #A02F19",
"$  c #A22F19",
"%  c #A32F19",
"&  c #A12F1A",
"*  c #A2301A",
"=  c #A53119",
"-  c #A7321A",
";  c #A8321A",
":  c #A9331A",
">  c #A8371A",
",  c #AC341B",
"<  c #AD351B",
"1  c #AE351B",
"2  c #AF351B",
"3  c #AE361B",
"4  c #B1371B",
"5  c #B1371C",
"6  c #B2371C",
"7  c #B3381B",
"8  c #B03F1B",
"9  c #B3381C",
"0  c #B5391C",
"q  c #B6391C",
"w  c #B73A1C",
"e  c #B8391C",
"r  c #B83A1D",
"t  c #BA3B1D",
"y  c #BB3B1D",
"u  c #BC3C1C",
"i  c #BD3C1D",
"p  c #BD3D1D",
"a  c #BE3C1D",
"s  c #BE3D1D",
"d  c #BF3D1D",
"f  c #C03E1D",
"g  c #C13E1D",
"h  c #C23F1D",
"j  c #C33F1D",
"k  c #C03E1E",
"l  c #C23F1E",
"z  c #C33F1E",
"x  c #B94A1C",
"c  c #BA4A1C",
"v  c #C3401E",
"b  c #C4401E",
"n  c #C5411E",
"m  c #C7411E",
"M  c #C9421E",
"N  c #CD441F",
"B  c #CE441F",
"V  c #CF451F",
"C  c #D0451F",
"Z  c #D2461F",
"A  c #D3471F",
"S  c #CF551F",
"D  c #D2501F",
"F  c #D24620",
"G  c #D34720",
"H  c #D54820",
"J  c #D74920",
"K  c #D84920",
"L  c #DA4A20",
"P  c #DA4A21",
"I  c #DE4C21",
"U  c #DF4D21",
"Y  c #D75920",
"T  c #E04D21",
"R  c #E14D21",
"E  c #E14E21",
"W  c #E05221",
"Q  c #E55022",
"!  c #E75022",
"~  c #E95222",
"^  c #EC5323",
"/  c #EE5423",
"(  c #EF5523",
")  c #E15D21",
"_  c #E35F21",
"`  c #F05523",
"'  c #F05623",
"]  c #F05923",
"[  c #F15C23",
"{  c #EB6022",
"}  c #F16323",
"|  c #F26623",
" . c #F26A23",
".. c #F37123",
"X. c #F47F23",
"o. c #F68723",
"O. c #F58A23",
"+. c #F68C23",
"@. c #F79433",
"#. c #FDECDC",
"$. c white",
/* pixels */
"                        S | | | | ` ` a                         ",
"                  Y | | | | | | | | ` ` ` ` z                   ",
"              8 | | o.#.$.+.X.| | | | O.` ` ` ` X               ",
"            ) | | $.$.| | x x x x x x ` ` ` ` ( R R             ",
"          ) | +.| | x x x | |  .| | | % X X ( ( E I E           ",
"        ) | +.| | x | | +.$.O.+ % | | ` ` ` % K F E U E         ",
"      K ) +.| x x | @.$.+.+. .+.K | ` ` ` ` ` X + N E E N       ",
"    % K  .| x x | $.+.+.| | H ` ( X ` ` ` ` ` ` + @ N K U %     ",
"    K K ` { x  .+.+.+.| | | +.( ` J ` ` ` ` ` ` T + N N T N     ",
"  b K K ` X { +.+.| | | | | +.( ` U Q ` ` ` ` ` T I . N N N k   ",
"  N Z ! X ( +.+.| | | | | { +.` ` K K ` ` ` ` R T T N + N N z   ",
"  N 4 ~ % ` +.` ( 0 + X k +.[ ` ` K ` t X % < K T T H @ 5 N b   ",
"a N b 0 X +.+.+.O.] ` ` ` ` ` ` ` K K Q R K K K J z R X 5 b b 9 ",
"N N N X ` +.` O.( ( ` ` ` ` ` ` K K K K K K K z z R U N X 5 b b ",
"N b M X R +.` ` & ` K K K ` ` ( K K K K K K % 0 U U R N X < b b ",
"N 7 0 % K W R ` ( X ` K K K K K K K K K z @ X R U U U z % < b b ",
"N 5 5 X N U R U R U R ..K K K K K K K a u 1 U R U R A b X : b b ",
"N N 5 % N R U R U R U % ` K K K K K J z a U R U R Z A b % 1 b b ",
"b N 5 X N N R U R U R O.` K K K J J J z % U E A A A A b X < b b ",
"0 b < 5 X N F U U R < [ ` K K z z z a z % X Z A A A v X < < v 9 ",
"  b < < X N N R R R +.( ` K B X X z z z a z Z A F F b X < < v   ",
"  b y < % b z N K R +.` K F , R J X X z f s Z Z N b v X < z b   ",
"  t b < < X b b v > +.K Z Z H F Z Z A : X X z v b b % < < b 5   ",
"    b < < < X b b +.( b A F F F Z Z A A Z a z z b * < < < b     ",
"    X b < < % X + b b b b b b b b b b b b b b X X X < < b X     ",
"      b b < < X + b b b b b b b b b b b b b b X % < < b b       ",
"        z t < < < + z z b b b b b b z b b z % < < < < b         ",
"          v t < < < + + + b b b b b z + + + < < < < v           ",
"            b b < < < < , + @ @ + + + , < < < < v b             ",
"              X z z < < < < < < , < < , < < < b X               ",
"                  ; b b 9 < < < < < < < b b =                   ",
"                        ; b b b b b b ;                         "
};
