/* XPM */
static char *d15e53154f1b46dca2f14953969c53a63BV6feBlXPudClP7[] = {
/* columns rows colors chars-per-pixel */
"32 32 8 1 ",
"  c #100D13",
". c #1D1A2A",
"X c #21383C",
"o c #3C405E",
"O c #48646B",
"+ c #65738B",
"@ c #7CA9B5",
"# c #ADCBD3",
/* pixels */
".+o.   o..    o..    o..   .+o. ",
".+o.   o..    o..    o..   .+o. ",
".+o.   o..    o..    o..   .+o. ",
".+o.   o..    o..    o..   .+o. ",
".+o.   o..    o..    o..   .+o. ",
".+o.   o..    o..    o..   .+o. ",
".+o.   o..  . o.. .  o..   .+o. ",
".+o.   o...O@ o.. @O.o..   .+o. ",
".+o.   o..O@  o..  @Oo..   .+o. ",
".+o.   o.O@#  o..  #@O..   .+o. ",
".+o.   o.OO@. o.. .@OO..   .+o. ",
".+o.   o.XOOX@###@XOOX..   .+o. ",
".+o.   o..OX@#####@XOo..   .+o. ",
".+o.   o..O O@@O@@O Oo..   .+o. ",
".+o.......OX OXOXO XO.......+o. ",
"o++#++++++.X  XOX  X.+++++++#+o.",
"o+oOooo+oo.OXXO OXXO.+oooooo+o..",
"o+ooooo+oooXOOOXOOOXo+oooooo+o..",
".+o....o....O#   #O..o......+o. ",
".+o.   o.. .O     O. o..   .+o. ",
".+o.   o..  .O   O.  o..   .+o. ",
".+o.   o..   .OOO.   o..   .+o. ",
".+o.   o..    ...    o..   .+o. ",
".+o.   o..    o..    o..   .+o. ",
".+o.   o..    o..    o..   .+o. ",
".+o.   o..    o..    o..   .+o. ",
".+o.   o..    o..    o..   .+o. ",
".+o.   o..    o..    o..   .+o. ",
".+o.   o..    o..    o..   .+o. ",
".+o.   o..    o..    o..   .+o. ",
".+o.   o..    o..    o..   .+o. ",
".+o.   o..    o..    o..   .+o. "
};
