/* XPM */
static char *_914e53358c248b8b73157a3583faf0au6YxkvAjKxYwbfMF[] = {
/* columns rows colors chars-per-pixel */
"64 64 57 1 ",
"  c #000300",
". c #040B00",
"X c #090E00",
"o c #001300",
"O c #0B1300",
"+ c #001B00",
"@ c #0E1900",
"# c #101700",
"$ c #121D00",
"% c #002100",
"& c #162100",
"* c #192500",
"= c #1D2B01",
"- c #1F3001",
"; c #222501",
": c #202F01",
"> c #2F2800",
", c #372500",
"< c #3F2300",
"1 c #233301",
"2 c #263801",
"3 c #293C02",
"4 c #3F3301",
"5 c #343C01",
"6 c #403201",
"7 c #612E00",
"8 c #7F2200",
"9 c #2D4202",
"0 c #304603",
"q c #344B03",
"w c #375004",
"e c #3A5404",
"r c #3E5A05",
"t c #5F4D06",
"y c #465403",
"u c #405F05",
"i c #7A4904",
"p c #446406",
"a c #476806",
"s c #4A6C06",
"d c #466608",
"f c #4B6E08",
"g c #4E7207",
"h c #4E7109",
"j c #507507",
"k c #517608",
"l c #557C09",
"z c #587F0B",
"x c #941900",
"c c #902E02",
"v c #B03003",
"b c #826E09",
"n c #5A840A",
"m c #5E890B",
"M c #628F0C",
"N c #73800A",
"B c #65930D",
/* pixels */
"                                                                ",
"    ...      ...         ..... .    .  .....            . ...   ",
"  ..o+++@&=*&+++..      o++++ooo.   .oo+%%+oo.    .@*=&@o+o+++. ",
"  o++%+o-ulhq$o+..     .+%%%+++o.   .o++%%+o...   O0fkd1oo++%+o.",
"  o+ooO@3hNbt=Oo. ..  ..++o.....    oo..oo..     X*wklf3$....o. ",
" .o+o.O-0yivc4*. ...  .oo     .... .    ..       $1393931@      ",
" .o+..O=357x86*....   ..XXXOO$***:1=#X.X        X*231*&12*##O...",
"  o+o..X#*><,;#. .    .XO&*:20rpdfnf3*$O.        #;33&O$=223:O o",
"  o+%+. X#*:=#X.    XX$=11113quadjMzp01$OXXX  o. X#:1;$#$=11=X..",
"  o+%+. .X*1=X     .#:qrw92123990qufmlq1*$$# .ooo.X$=22$XXXX....",
" .o++o. X#:1*X    X#:0eyqqee3:-1333eznse2::*OX...  X$:1=#X     .",
" .+%o. .#11=#    .O*0uw32qjlq1=-3013efmkq352*O. oo..O#-11#.     ",
" o++. .#;2:$X  X.X$:0w02:3dfr0-=33::3efkpw932*#. o.. .$:1=#X    ",
" .++.X$12;$X  . #$::23331:20rr2=1:*=239eka3232*#..o.. X$:11#.   ",
"  o X#=1-$X    #$:::12331=*:99=$$$$*:::qks313q01#. ... X$:1;#.  ",
"   .#11=$X    #$*::20q31::**&#OoOOO#*:=9au2=3eaw-O. ....X#:3:X  ",
"  .$;1:#X   XX$=:19esfe3=&&$@OOOoOOO&&&-001-2rnf3*O..    X$::X .",
"  X:2:#X   .#$=239efmmp9&@@@@@@@$@@@&@O$=---1dmlw1*#.     X$*X .",
"  X::#X.  XX$:0rdfdupp9=#O@@$$@@&@@@&@OOO$*=1rnf021*#.    X*:X o",
"  .$$X    X$;0yfnnd91=&@@@@@&&$@&&$@&&@OO$*=2wfe2301$X  . X:1# +",
"  X$#.    X*qfkddu0:&OOO@&&&&$@@@&@@&&$@#O$1weq2:302*X o  X==X o",
"   ##X    #:ezke92=*@OO$&&&&$$@$@@@@@&&&OO#1ew2-:3951$..oXX##X o",
"  .XX#X..#*3wew31=&OOO$&&$$&@@@@@&@@@@$&&$#*-1=-333dd3#.X$*#Xooo",
" .. X$#.X$2wq3:=:=&@O$$&&@@@$@@@@@@@@@@@&&$@@&=2313hmu=XX=1# ooo",
"  . .$#XX*wkd3-==*$#@&&$@@$&&$$$@@@$$$@@$&&@@&=-1=2fmr=XX*=X .oo",
"  ...##X#3dzf9:=**&$$&$@@&&&&&@O@@O$$&$$@$&&@&=-=13dkd3$X##. ..o",
" .oo.X##3fku0112=#$&&$$@$&&@OOOXoO.OO@&&@@$&&$$$=qrrrhh3$XX.o...",
"  ++  X*wnh51903=@@&&@@@$&@OXX....X..O$@$$$$&@@&2eu00zMr=X.ooo..",
" .+%. X$3re3whd2*$&&$@$@OOOX.X.XX..X..O$$$$$&##1re513zBu=X oo+oo",
" .%%. X*1q00uld1&$&&&$#OXo..X.....X.O..O$$$&&$$3e01=3fze*X oo+oo",
" .++o .$1qrduw1$@&$$&&OoX..XOXX.X..XOO.OO@&$$$&*=1--20w3$X  .o..",
"  ooo.O*9rddw1$X@&$$@&OXXX.XOOXX.X..OOO.XO&&$$$#O$=-:1193#..  ..",
" ...X#*1enkq2*$O#&&$@@OXXOX..X.XX..XXXOOOO&&#$$OO$*===3fk0#X. o.",
"    X$10anf3*&#O#&$#@OXXXXXXXX...XX..XOO.O$$$@@OO@&**=3nBe*X  .o",
"  . .$0gkr02*OOO@$$&@o..XXX....X XXXX....XO$&$$$$#O*=19knw*   ..",
"    X$qkk9::&OOO@$&$OXXX...X.XX.XX...X.XX..O@$@$&OO&:19glw*X    ",
"    .$0ga3=*$OO@&&&@OXOOXX.X...XOOX.XX.XOO..OO@@@OO#*=3pfq*X    ",
"    X*3uu31=$oOO$&$OX.OOO.X.XXX.OOO....XOOO..O@@@OO$=2qru3$.    ",
"    X$3qw03:&OO@&&@OXXOOXX.XOOXX.OOXX.XXOOX..@$&@OO$=wpw31*X    ",
"   .#=23933:&@O@$#OO.XoOX.XXOoXX..OOOX.XOOO.OO$&@OO*2we93w0*O   ",
"   #;591::==&#@&@OOOO.XXX.XOOXXXXXOOOO..XOOOOO@$&@&=332:3kl0#.  ",
"  X$3ew2==:1=&&&@OOOOX...XXOOOOOOOOOOO.X.OOO.O@$&$&=1:=10fk0*. .",
"  .$3pp311391&&&#OoOXX.XX.Xo$&&&&&$$X.X..OOO.O@&&&@@#*13que3$. .",
"  .$3rr3-19e9*&&#OOOOX...X.XO$#$$$$OXX.X.OOO.O@@&$OOO&=20dd9$.  ",
"  X$:001=1qrq=$&@OO@O.X.XOXOOOOOOOOOOXX..OOOOO@@@@@OX$=:0lnw*  .",
"  X$:33=1qqq2&$$OXOOXX.XO$$$$$$#$$$#$$$$OX@O.O@@$@@oO$=10znq*X .",
"  X$=122qrw=@@@@OOOOo.XX$=============*$OXOO.OO&&$@OO*13ejk0$.  ",
"  X$*10par3#o@$$OXOOOX.X#$&$&&&&$&$*$*$$.OOOOO@$*&OOO$=10jk0*. .",
"  .$=9rzhq=OO@$&OOO@OOOOOOOO@O@O@O@OOO+OO@@OOO+&*$#Oo$=20hk0*.  ",
"  X$9dlfe2$OOO$&@OOO$$&&&&&&&&&&&&&&*&&&&&*&OO@&&$@OO$:qppe3$X  ",
"  X#qmme2=&OO@&&$OO%*==-===:-==-=:==:=-====*@@@&*$@OO&9phe3:$.  ",
"  X$wBBe2=&OO@$&$O@@&&*&=****************&&&$@@&*$#o@2wre92=$.  ",
"   $qMmr32&O.@$&&&&&&&&=&&&&**&&&&*&&&&**&*&&&&&*$@&=quq32:=$X  ",
"  X$5pp91=$OOO@&--22222-2222222222222222222222--&#&2www9321;$X  ",
"  .$2ey3==$OO@@&=299999999999999999999999999992-&@&quw99900:$X  ",
"  X$0jkw3=$OO@@@&===-=-==-===-===-===-===-=-=-=&$@&9w9--9sf0$X  ",
"  X$0zze31&OO#&=----------------1---------------=&&131::0jzq&.  ",
"  X$1ee3-=$Oo$1euuuuuuuuuuuurprrpruuuuuuuruuuuure2&$*=:30ew2$X .",
"  .$1qq2==$OX@2rdududududdudppdppuppppppddddddddr2$XO*:30eq1$. .",
"  X$9kkw31&O..@&*========*=========*==*=*=*=*=*=*OX.X#::9fk0*.  ",
"  .#3hkw1:#X  ......             .... . . ...       X#$#1dh9#.  ",
"    #**#OX.  .oooo.....        ......  .              ..X*=OX  .",
"             o.o.o..oo..        .......o...                    .",
"..         .o......o++.          ......o...        ooo.. .. ... "
};
