/* XPM */
static char *_17424166ffc49578104ec05da6d75beMjFa8dFgcckwswnF[] = {
/* columns rows colors chars-per-pixel */
"25 32 195 2 ",
"   c None",
".  c #151D17",
"X  c #162016",
"o  c #17211A",
"O  c #1A241C",
"+  c #1B2117",
"@  c #23291B",
"#  c #262816",
"$  c #322E16",
"%  c #1E2823",
"&  c #212A23",
"*  c #232E29",
"=  c #2C342B",
"-  c #2E3022",
";  c #393925",
":  c #303A37",
">  c #383E38",
",  c #473C1A",
"<  c #413925",
"1  c #503F2B",
"2  c #60451E",
"3  c #4D4125",
"4  c #4B442D",
"5  c #504925",
"6  c #5D5137",
"7  c #6A4728",
"8  c #62492E",
"9  c #7A5B2D",
"0  c #6C5233",
"q  c #675B3C",
"w  c #6D593D",
"e  c #7C5632",
"r  c #745B3D",
"t  c #7D5D3C",
"y  c #735933",
"u  c #7A623E",
"i  c #71633F",
"p  c #494F46",
"a  c #514E44",
"s  c #4C5245",
"d  c #5D5847",
"f  c #4C5651",
"g  c #635F45",
"h  c #6E5B44",
"j  c #745F43",
"k  c #795B42",
"l  c #6A6A4A",
"z  c #7A6B4E",
"x  c #70714F",
"c  c #666850",
"v  c #6B6B54",
"b  c #7F6752",
"n  c #716B54",
"m  c #736858",
"M  c #7E6E55",
"N  c #6A7059",
"B  c #79725D",
"V  c #7B7052",
"C  c #835B2D",
"Z  c #885E33",
"A  c #8D643D",
"S  c #816442",
"D  c #8B6545",
"F  c #896A43",
"G  c #84654C",
"H  c #8A674F",
"J  c #8D6A4F",
"K  c #876E4D",
"L  c #946944",
"P  c #95754E",
"I  c #876B55",
"U  c #8B6A52",
"Y  c #9F6F53",
"T  c #906F59",
"R  c #837357",
"E  c #8C7254",
"W  c #81765C",
"Q  c #8E7859",
"!  c #8B7858",
"~  c #967453",
"^  c #9B7651",
"/  c #967658",
"(  c #967A5E",
")  c #A5774D",
"_  c #B37E4B",
"`  c #AD7E5F",
"'  c #B17E59",
"]  c #897763",
"[  c #9D7D65",
"{  c #957A63",
"}  c #A08050",
"|  c #AA8057",
" . c #A9845F",
".. c #B08350",
"X. c #B8865D",
"o. c #8B8469",
"O. c #9E8066",
"+. c #968F61",
"@. c #858472",
"#. c #9A9679",
"$. c #A28261",
"%. c #AD8A62",
"&. c #AB8A6B",
"*. c #A88569",
"=. c #BE8C61",
"-. c #B28B6E",
";. c #B88B66",
":. c #BF9E6F",
">. c #B88D72",
",. c #AA927C",
"<. c #A29079",
"1. c #B29274",
"2. c #BA9476",
"3. c #B5957C",
"4. c #BA9B7D",
"5. c #C78E5F",
"6. c #C78A63",
"7. c #C39166",
"8. c #C99161",
"9. c #D49366",
"0. c #C09672",
"q. c #C29973",
"w. c #D69E7C",
"e. c #D59F74",
"r. c #CDA17F",
"t. c #D0A07F",
"y. c #DCA57E",
"u. c #DBA779",
"i. c #B79B84",
"p. c #BEA885",
"a. c #BEAA91",
"s. c #CC9F86",
"d. c #CFA681",
"f. c #CAAB89",
"g. c #CBA684",
"h. c #D4A286",
"j. c #DBA484",
"k. c #D5AB85",
"l. c #DBAD8D",
"z. c #D2A789",
"x. c #D9B185",
"c. c #C5AB9C",
"v. c #D3AA92",
"b. c #DAAA93",
"n. c #C9B693",
"m. c #E2AB86",
"M. c #EBAC84",
"N. c #E8AE89",
"B. c #E5B28C",
"V. c #ECB28D",
"C. c #E7B888",
"Z. c #F3B48C",
"A. c #F9B88D",
"S. c #EEB593",
"D. c #EEBA92",
"F. c #E9B99D",
"G. c #F4B692",
"H. c #FBB492",
"J. c #F3BB94",
"K. c #FBBE91",
"L. c #F3B49C",
"P. c #FABE9E",
"I. c #F0BE99",
"U. c #D8B1A2",
"Y. c #ECBAA5",
"T. c #FBBCA4",
"R. c #FCC496",
"E. c #FDC997",
"W. c #FDC49B",
"Q. c #FDCB9C",
"!. c #F5C598",
"~. c #D3CDB3",
"^. c #ECC3A1",
"/. c #FCC4A2",
"(. c #FDCCA3",
"). c #F0C7AC",
"_. c #FCC4AD",
"`. c #FECDA9",
"'. c #F6CBA4",
"]. c #FED2A5",
"[. c #FEDAA6",
"{. c #FED4AD",
"}. c #FCDCAC",
"|. c #F1D6AB",
" X c #FDDCB2",
".X c #F7D9B8",
"XX c #FEE1AF",
"oX c #FEE3B3",
"OX c #FFE9B7",
"+X c #FDE6BC",
"@X c #FEEABB",
"#X c #E7DFC7",
"$X c #F0E0C6",
"%X c #F0EAD5",
"&X c #FFFDEB",
/* pixels */
"              & % %                               ",
"          * o O O O % :                           ",
"          + X O O O % %                           ",
"        . . O & @ @ O = f                         ",
"        > . - z O.E 1.3.a                         ",
"          # < v.S./.`.Y.                          ",
"          l j 0.6.X.' L m                         ",
"          ] K I.B.`.`._.                          ",
"            Q B.(.W.`.L.                          ",
"              r.M.H./.S.c.                        ",
"              / V.H.W.%.i.,.                      ",
"              5 F l.z.+X'.T.h.v.                  ",
"          ] B x , #., j.]./..XJ./.T.U.            ",
"        @.R { j z q q.J.W.L } ^.(. X$X).          ",
"      B c < G D ` h.j.T.F ^ $X|.].oXoX[.^.        ",
"    W <.n n w ) 6.m.w.7 e oXOXoXk.}.}.].].        ",
"  b O.,.I n 6 [ !.D.e n.}.}.oX@X}.!.(.Q.W.        ",
"  I 1.%.~ 4.k o.n.Q +.}.}.XXOX@X'.e.A.K.Z.v.      ",
"  U -.1. .w.g.0 %.O. .}.oXoXOXOX}.7.W.W.H.W.      ",
"  J [ u  .w.m.k..XE :.}.XXXXoXoX`.y.`.(.W./.      ",
"  J $.z ^ 7.y.B.4.4 9 !.E.E.E.J.y.X.J.Q.Q.W.Y.    ",
"  H $.7 F ) 7.y.p.4 y q.m.j.;.-.k 8 | W.(.W.L.    ",
"  H *.I 4 0 / r 3 M .Xr l &X#X$XQ i 2 R.Q.W.T.    ",
"  U -.(   ; ; $ $ i ^.f.%.x.}.}.Q.Z.  B.W.W.T.    ",
"  T 2.[     t ) X.!.R.}.XXXX}.XX(.B.    G.W._.c.  ",
"  / 2.{     t L u.E.].[.}.[.[.[.E.d.    k.G.{.Y.  ",
"j ` 2.{     S Z _ K.].E.E.E.W.R.C.2.    f.V.{._.  ",
"I -.>.]     S D 5.R.E.Q.[.E.E.R.M.1.      J.{./.  ",
">.:.-.      F Z 5.R.E.].].Q.Q.(.R.&.      !.`.T.  ",
"z.s.2.    h ~ C | A.9.E.Q.E.].].Q.{       D./.P.c.",
"b.F.g.    $ q u } !.}.(.(.Q.].(.z.d       B.Q.W.c.",
"h.L.b.    = @ d #.~.%Xg v N v N s p       V a.i.B "
};
