/* XPM */
static char *result[] = {
/* columns rows colors chars-per-pixel */
"25 32 195 2 ",
"   c #151D17",
".  c #162016",
"X  c #17211A",
"o  c #1A241C",
"O  c #1B2117",
"+  c #23291B",
"@  c #262816",
"#  c #322E16",
"$  c #1E2823",
"%  c #212A23",
"&  c #232E29",
"*  c #2C342B",
"=  c #2E3022",
"-  c #393925",
";  c #303A37",
":  c #383E38",
">  c #473C1A",
",  c #413925",
"<  c #503F2B",
"1  c #60451E",
"2  c #4D4125",
"3  c #4B442D",
"4  c #504925",
"5  c #5D5137",
"6  c #6A4728",
"7  c #62492E",
"8  c #7A5B2D",
"9  c #6C5233",
"0  c #675B3C",
"q  c #6D593D",
"w  c #7C5632",
"e  c #745B3D",
"r  c #7D5D3C",
"t  c #735933",
"y  c #7A623E",
"u  c #71633F",
"i  c #494F46",
"p  c #514E44",
"a  c #4C5245",
"s  c #5D5847",
"d  c #4C5651",
"f  c #635F45",
"g  c #6E5B44",
"h  c #745F43",
"j  c #795B42",
"k  c #6A6A4A",
"l  c #7A6B4E",
"z  c #70714F",
"x  c #666850",
"c  c #6B6B54",
"v  c #7F6752",
"b  c #716B54",
"n  c #736858",
"m  c #7E6E55",
"M  c #6A7059",
"N  c #79725D",
"B  c #7B7052",
"V  c #835B2D",
"C  c #885E33",
"Z  c #8D643D",
"A  c #816442",
"S  c #8B6545",
"D  c #896A43",
"F  c #84654C",
"G  c #8A674F",
"H  c #8D6A4F",
"J  c #876E4D",
"K  c #946944",
"L  c #95754E",
"P  c #876B55",
"I  c #8B6A52",
"U  c #9F6F53",
"Y  c #906F59",
"T  c #837357",
"R  c #8C7254",
"E  c #81765C",
"W  c #8E7859",
"Q  c #8B7858",
"!  c #967453",
"~  c #9B7651",
"^  c #967658",
"/  c #967A5E",
"(  c #A5774D",
")  c #B37E4B",
"_  c #AD7E5F",
"`  c #B17E59",
"'  c #897763",
"]  c #9D7D65",
"[  c #957A63",
"{  c #A08050",
"}  c #AA8057",
"|  c #A9845F",
" . c #B08350",
".. c #B8865D",
"X. c #8B8469",
"o. c #9E8066",
"O. c #968F61",
"+. c #858472",
"@. c #9A9679",
"#. c #A28261",
"$. c #AD8A62",
"%. c #AB8A6B",
"&. c #A88569",
"*. c #BE8C61",
"=. c #B28B6E",
"-. c #B88B66",
";. c #BF9E6F",
":. c #B88D72",
">. c #AA927C",
",. c #A29079",
"<. c #B29274",
"1. c #BA9476",
"2. c #B5957C",
"3. c #BA9B7D",
"4. c #C78E5F",
"5. c #C78A63",
"6. c #C39166",
"7. c #C99161",
"8. c #D49366",
"9. c #C09672",
"0. c #C29973",
"q. c #D69E7C",
"w. c #D59F74",
"e. c #CDA17F",
"r. c #D0A07F",
"t. c #DCA57E",
"y. c #DBA779",
"u. c #B79B84",
"i. c #BEA885",
"p. c #BEAA91",
"a. c #CC9F86",
"s. c #CFA681",
"d. c #CAAB89",
"f. c #CBA684",
"g. c #D4A286",
"h. c #DBA484",
"j. c #D5AB85",
"k. c #DBAD8D",
"l. c #D2A789",
"z. c #D9B185",
"x. c #C5AB9C",
"c. c #D3AA92",
"v. c #DAAA93",
"b. c #C9B693",
"n. c #E2AB86",
"m. c #EBAC84",
"M. c #E8AE89",
"N. c #E5B28C",
"B. c #ECB28D",
"V. c #E7B888",
"C. c #F3B48C",
"Z. c #F9B88D",
"A. c #EEB593",
"S. c #EEBA92",
"D. c #E9B99D",
"F. c #F4B692",
"G. c #FBB492",
"H. c #F3BB94",
"J. c #FBBE91",
"K. c #F3B49C",
"L. c #FABE9E",
"P. c #F0BE99",
"I. c #D8B1A2",
"U. c #ECBAA5",
"Y. c #FBBCA4",
"T. c #FCC496",
"R. c #FDC997",
"E. c #FDC49B",
"W. c #FDCB9C",
"Q. c #F5C598",
"!. c #D3CDB3",
"~. c #ECC3A1",
"^. c #FCC4A2",
"/. c #FDCCA3",
"(. c #F0C7AC",
"). c #FCC4AD",
"_. c #FECDA9",
"`. c #F6CBA4",
"'. c #FED2A5",
"]. c #FEDAA6",
"[. c #FED4AD",
"{. c #FCDCAC",
"}. c #F1D6AB",
"|. c #FDDCB2",
" X c #F7D9B8",
".X c #FEE1AF",
"XX c #FEE3B3",
"oX c #FFE9B7",
"OX c #FDE6BC",
"+X c #FEEABB",
"@X c #E7DFC7",
"#X c #F0E0C6",
"$X c #F0EAD5",
"%X c #FFFDEB",
"&X c None",
/* pixels */
"&X&X&X&X&X&X&X&X&X&X&X&X&X&X&X$ $ % &X&X&X&X&X&X&X",
"&X&X&X&X&X&X&X&X&X&X&X&X&X; $ o o o o & &X&X&X&X&X",
"&X&X&X&X&X&X&X&X&X&X&X&X&X& o o o o   X &X&X&X&X&X",
"&X&X&X&X&X&X&X&X&X&X&X&Xd * + + + + o     &X&X&X&X",
"&X&X&X&X&X&X&X&X&X&X&X&Xa 2.1.I &.l # o : &X&X&X&X",
"&X&X&X&X&X&X&X&X&X&X&X&X&XU._.^.A.c., O &X&X&X&X&X",
"&X&X&X&X&X&X&X&X&X&X&X&Xn S ` -.*.1.h k &X&X&X&X&X",
"&X&X&X&X&X&X&X&X&X&X&X&X&X).'._.B.P.J ' &X&X&X&X&X",
"&X&X&X&X&X&X&X&X&X&X&X&X&XK._.E./.N.R &X&X&X&X&X&X",
"&X&X&X&X&X&X&X&X&X&X&X&Xx.B.^.G.m.e.&X&X&X&X&X&X&X",
"&X&X&X&X&X&X&X&X&X&X&Xu.u.-.L.C.C.! &X&X&X&X&X&X&X",
"&X&X&X&X&X&X&X&X&Xc.g.U.`.OXj.k.D 4 &X&X&X&X&X&X&X",
"&X&X&X&X&X&XI.Y.E.F.|.`.'.j.> @.> z E ' &X&X&X&X&X",
"&X&X&X&X&X(.OX X'.k.o.K E.K.0.0 b h [ T +.&X&X&X&X",
"&X&X&X&XU.'.XXXX'.}.OX~ D Y.h.h._ Z l < x N &X&X&X",
"&X&X&X&X_.].{.{.z.OXOXXXV 6 q.M.5.U q b b ,.E &X&X",
"&X&X&X&XE.W./.H.{.oXXX.X{.b.t Q.H./ 5 b B >.] F &X",
"&X&X&Xv.C.J.Z.y.`.oXoX.X{.}.O.Q b.X.j 3.! %.<.P &X",
"&X&X&X^.C.E.E.6.{.OXoX.X.X].$.| %.9 f.q.| <.=.I &X",
"&X&X&X^.E./.'.t./.XXXXXX.X{.0.R  Xg.n.q...y ] I &X",
"&X&XU.E./.E.H...y.H.T.R.T.T.8 3 3.N.y.6.~ l #.I &X",
"&X&XK.E.W.E.} 7 j =.-.h.z.0.t 3 i.h.6.( Z 7 &.G &X",
"&X&XY.E./.T.1 u W #X@X%Xk e  XT 2 e ^ 9 2 R &.F &X",
"&X&XY.E.E.N.&XC.W..X.Xz.%.f.~.u # # - - &X/ =.P &X",
"&Xx.).E.C.&X&XN.W..X{..X.X].T.S.*.( r &X&X] 1.I &X",
"&XU.[.G.j.&X&Xg.T.].].]..X].'.W.y.K r &X&X] 1.^ &X",
"&X).[.B.d.&X&X1.V.T.T.W.R.R.W.T.) C A &X&X[ 1._ g ",
"&XY.[.P.&X&X&X<.m.T.T.W.].W.W.T.7.K A &X&X' :.=.P ",
"&XY._.Q.&X&X&X%.Q.W.W./.].'.R.R.4.C D &X&X&X=.9.2.",
"x.Y.E.S.&X&X&X[ W.'.'.R.R.R.8.Z. .V L g &X&X1.a.g.",
"x.E./.N.&X&X&Xs j./.`.R.W.`..XQ.{ y 0 # &X&Xf.D.k.",
"N u.p.B &X&X&Xi a M M n x x $X!.@.s o * &X&Xv.K.g."
};
