/* XPM */
static char *d8e2a64d445f4523a5dadcb9385314d7bSxHVtk5f8TKSfKn[] = {
/* columns rows colors chars-per-pixel */
"64 64 13 1 ",
"  c #000100",
". c #010300",
"X c #010600",
"o c #000601",
"O c #010A00",
"+ c #010F00",
"@ c #001000",
"# c #011701",
"$ c #001A01",
"% c #011C00",
"& c #002001",
"* c #002501",
"= c #012801",
/* pixels */
"          o                        o     o      oo        o     ",
"  oooO+OO+OOO++Oo       oOO+OOOoo   ooOOO+OOoo    oOOOOOOOOOOOo ",
" oO+#$&&$$$$%*&$+O  oo O@%%%$$$@Oo oO@#$%&%@+Oo  oO@#$&%$$$$%$+o",
" o@#$&**&&$%*==&@oo    O%&*&%$$#+ooo@##$*&$#@+o   +@$%*&%%$%&%+O",
" O#$#$%***$#$$%%Oo+Oo o@&*#+@@#@+o O##+O##OOoooo  O+@##$#@@@@+Oo",
" o#%#@$%*%##@#$$+O+OooO#%&#@@@@+OOoO##+oO+o o     oO+@++@+OoOOoo",
" O#$+++@##@@++$$@+Oo o@$###%&&@OOo o@@++Oooo       oOO+++OoooOO+",
" O@$#+oO@@++OO##@Oo  O@#++#$*&@++Oo +++Oo    oooo   oOooooo oO@@",
" o@$&%OO@@+OooOOoo  oO++@@@#%%++@#o oooo     O@@Oo    o o  o++@@",
"oo@$&%+o++Oo     oooO++@@++@$$@@$@o        ooO##@Oo oo     o++@@",
" O#$%#OOOOOO   ooooO+@$#+++@@###@Oo       o+@#@+@@OO+Oo   ooooOo",
" O%%@+Oooooo   oO+++@#%%@O@#@#$@+o    o oOO+$$+O@@O++Oo       o ",
"o+%&+ooo  o   OO+@@@$&*&@+#$+O++o   oO+++++#$$++@#@++Ooo       o",
" O$%@ooo      OO@@##$&&$@+@#+OOo    O++@@###$#@@@@@+OOOo  o     ",
" o@@+++Oo    oOOO@$$##@+OO++OOOo   oO@++$%%$###$#@++++Ooo.oo    ",
" ooO+@@+oo    oooO##@+++OOOOOOOo  oo@@++#$$$@#$$@+OO++@o  ooo  o",
"  oooO++o      o o++O+++OOOOOOo   o+#$@@+@#@++$$@+OOOOo   oOoOoo",
"     oOOo        ooOoO+OOOooooo   o+#$#@++@@++$#+OOOOo   oOOOO++",
"      ooo     o   o  oooo  o o    oOO@##++#$@@#@+O++o   oO++O+##",
"  ooo        oOOO       ooo o    oooO+##O+#$#@@@+++Oo ooO+@#@@$$",
" o++Oo    o  O%%@+o    o++Oooo    o oO++O+@#+O++#@Oo o@#++#$$$##",
" o+@OOo     o+%%@Oo o oO@@OO++o o   oOoooO++O+O+#@O  O#$+@$%%%#@",
" O@#O oo    O++OOo ooooO@@O+#@+oOo   o o oOO++@@@Oo oO+@#$##%%#@",
" o#$@+Oo   oOOo     OO+@@@@@$$@OOooo  o   oO+@@+Oo  oOO@$$#@#$@#",
" o@$&$+    oo     oOo+##@@$#####+Ooo  oo   oO+OOo   o+#$%$@+++@@",
" o+$%$+          ooO+@####$$####+OOoo ooo   ooOoo  oo+@$$$@+O+@@",
" o##+++Oo         O+##@+@##@@@@+++Oo   o     o       o++##$#@@++",
" O$$+oO+ooOOo     oO#$@+##@@#@+++++Oo ooOo    OOOoo   oO+@$$$@+O",
" O&&@OOOoO$$O      o@##$$#++$$@@O+++  O@#@o  o@#@+o  oo+@@#$$$@@",
" O&&@+OO +&&@oo    o+#$$$#O+##@++++Ooo+@#@Ooo+$$@+o   oO+++@###@",
" O$%#+OooO$%@+o    o+@##++O+@#++##+Oo ooOO o+@$$+o     oO+O++++O",
" O#$$#+o O@#$@o o  oO+@++O++#@++@#+o       o+@#@o o     ooOOOOOO",
" o+$*%@oo o+##Ooo  oOO+O+##$$$@@@+Ooo      oooOO         oOOOO+@",
" oO#**@ooooO@@O     OOO++@$$$##+OOOo      o               oooO+@",
" oO#*&+o+OooOoo   oOoO++++@#@++OOOOOOo                     o oO+",
"  o+$%+O+Oo      oo++##@OO++OOOOOOoOOoo   o    o     o        oo",
"oo oO++OOoo      o+#%*%$+OOOOO++OO oooo oooo     ooOOO          ",
"     oOO   o  o  oO#&&%#+OOOO++@Ooo ooooO++Oo     o+@@Oo oooo   ",
"o    ooo   ooOOo oO+##++@@+OOO@@+oo  ooO#$$@O     o+$$@OOO@#Oo  ",
"  oOOOoo    ooooo oO++O+#@OOO+++Oo    o@%&%#O    oO+%%$#+@$$+ooo",
" oO@%%#Oo    oo   ooOOO+##+O++OOo     O@&*$@Oo   oO@&*%$@#$$+Ooo",
" o#%*&@+oo     oo  ooooO#@OOO+Oo  ooo o@%&$#+Oo   o@%&%##@##@+OO",
" O%*$#OO+Oo ooOo oooo  oOoo  ooo o@#o OO@@$$@+Oo  oO@@++++++##+O",
" O&&$+ooO+ooO+@+O oo       o   oO+##+ooO++###@+oo oOO++OOOO+##+O",
" O$%#+o oo+@@#&%+OOoo    o+OooO@###@@+oo+++@##+o   oO+@#@+O+@@+O",
" o#$+Oo   O@#$=*@OOo     o++++@##@@++Oo O+O+##+Oo   oO###@OO++OO",
" o@@O    oO+#%=*#+oo     o+###$#+OoOo  oOOO+O+@O     ooOOOOOOOOO",
" oO+OOoo  o+#%&&#+oooo  oo+@$$$@o      ooooooO+Oo       oOooOoOo",
"  oO@#+O ooO+@###+OOoo oO+O+@@+O      ooo o o  o        o  o  o ",
"ooo+##@+o ooOO+@@+Oooo oO+oO+Oo o o  ooooO      ooooo  ooo      ",
" O$%@O+Oo oooOO+OOooo   ooooOo ooO++Oooo@#Oo   o+@#@o  o+Oo o   ",
"o+%&+ooo    oOOoOo              O+@@@++@##+O   oO@%%@oooO+o     ",
" O$%#+o o    oOooo           ooO+@@#$$%%@+Oo  Ooo+&*%@oooOo     ",
" O%%@OO      ooO o          ooOO++@#$%=&@+Ooo Oo O$%$#O         ",
" +%&@o        oO    o  o  ooO+OOO@$$#$%%#@OO++OO oO+Ooooo       ",
" O%%Ooo ooo   ooo  o o   oO+@#@++@$%##$$$#@@@++oo   oo  oOOOOoo ",
" o@#O  o+Oo        oooo  oO#$$$$@#$%%$@#&*%$@@Ooo  o+Oo O@%&$#Oo",
" oOOooooO+O    o oooOoo   +@#$$$#@$$$#+@&*&$@@+o   oOOoo+#&*%#+O",
" oo  o++Ooo   oOOOOOOo    O++@@@++@#@@@#%&$@@OOoo    o  o@%%@+OO",
"     O@#Oo  oo+@##+OOoo   oooO+++O#@+O@@#$@++Ooo    ooOoO+##+OOO",
"     +%&@+ oO@$%*&#+OOoo    ooO+@@$$+OO++++OOOo    o@###@+++OOOO",
" o   O$%#Ooo+@$%&&#+++Ooo     oO+@#@+oOOOOOOOo     O#$$##+OOOOOO",
"ooo   O+oooO@@++@@O+##+oo      oO+++OO++OOOO      oO@#+++OOOOOOO",
"OO        o+@++OOOO+$#+O        oOOOO+@@OOOoo     o+@+OOOOOOOOOO"
};
