/* XPM */
static char *_b8e64412bdc491aeab8efdb729cc110KOBfvuGlnzejSbj7[] = {
/* columns rows colors chars-per-pixel */
"64 64 171 2 ",
"   c #000300",
".  c #000B00",
"X  c #0F030F",
"o  c #11080F",
"O  c #001300",
"+  c #001B01",
"@  c #140213",
"#  c #130A11",
"$  c #1F031B",
"%  c #141412",
"&  c #21021F",
"*  c #220B1F",
"=  c #002301",
"-  c #012801",
";  c #260422",
":  c #290225",
">  c #280C24",
",  c #32012C",
"<  c #300829",
"1  c #251423",
"2  c #2A1125",
"3  c #301129",
"4  c #6D0163",
"5  c #700165",
"6  c #710169",
"7  c #7C016F",
"8  c #7D0074",
"9  c #761D72",
"0  c #7B1B77",
"q  c #7E1C79",
"w  c #642964",
"e  c #6F236C",
"r  c #6A2D69",
"t  c #71246E",
"y  c #702D6E",
"u  c #663266",
"i  c #6C316B",
"p  c #70346F",
"a  c #782274",
"s  c #772977",
"d  c #792A77",
"f  c #7D267A",
"g  c #7C2C79",
"h  c #6F3A70",
"j  c #743274",
"k  c #793078",
"l  c #7A3D7D",
"z  c #820174",
"x  c #83027A",
"c  c #8B027D",
"v  c #880A7F",
"b  c #92007E",
"n  c #82137B",
"m  c #8A127F",
"M  c #841B7E",
"N  c #81247D",
"B  c #822E7F",
"V  c #7F3D81",
"C  c #7D4E83",
"Z  c #8E0184",
"A  c #870981",
"S  c #8C0881",
"D  c #930285",
"F  c #9B0286",
"G  c #910F87",
"H  c #95028A",
"J  c #9B028C",
"K  c #96098B",
"L  c #8B1684",
"P  c #871882",
"I  c #8E1F87",
"U  c #8F1389",
"Y  c #901385",
"T  c #94158D",
"R  c #951A8C",
"E  c #970591",
"W  c #9E0492",
"Q  c #9C0A94",
"!  c #9E1397",
"~  c #971D94",
"^  c #9B1D93",
"/  c #A1018E",
"(  c #A30193",
")  c #AA0197",
"_  c #A30B95",
"`  c #A5019B",
"'  c #AC019B",
"]  c #A50C98",
"[  c #AF089D",
"{  c #B3009D",
"}  c #B9049E",
"|  c #A11196",
" . c #A11D9A",
".. c #852381",
"X. c #8C2385",
"o. c #842981",
"O. c #8A2D85",
"+. c #8B2389",
"@. c #8C2D89",
"#. c #92218B",
"$. c #932C8E",
"%. c #843484",
"&. c #843983",
"*. c #8E318C",
"=. c #873F88",
"-. c #8C3E8D",
";. c #90338D",
":. c #972492",
">. c #972D92",
",. c #9E2799",
"<. c #9E2A98",
"1. c #8F3690",
"2. c #9C3197",
"3. c #903D90",
"4. c #A4259C",
"5. c #A03199",
"6. c #AD01A1",
"7. c #B401A2",
"8. c #BA01A4",
"9. c #B008A2",
"0. c #B405AA",
"q. c #BD00AA",
"w. c #B80CAC",
"e. c #AF18A6",
"r. c #B319A9",
"t. c #B428AC",
"y. c #A731A1",
"u. c #AD33A7",
"i. c #A83DA4",
"p. c #AE35A9",
"a. c #AB3EA8",
"s. c #BE2DB6",
"d. c #BB3DB4",
"f. c #C100A7",
"g. c #C300AC",
"h. c #C800AF",
"j. c #C500B1",
"k. c #CC00B4",
"l. c #CF00BB",
"z. c #C90DBB",
"x. c #D100B6",
"c. c #D400BA",
"v. c #D900BE",
"b. c #C617BC",
"n. c #C61DBC",
"m. c #814485",
"M. c #834987",
"N. c #854788",
"B. c #894C8D",
"V. c #954395",
"C. c #9E419D",
"Z. c #9C489C",
"A. c #97529C",
"S. c #A04B9F",
"D. c #A443A3",
"F. c #A845A6",
"G. c #AD40AA",
"H. c #AD48AB",
"J. c #A551A5",
"K. c #B641B2",
"L. c #B54BB1",
"P. c #CD0DC2",
"I. c #D502C4",
"U. c #DC00C3",
"Y. c #DD00C9",
"T. c #D418C8",
"R. c #D41AC8",
"E. c #E100C5",
"W. c #E400C8",
"Q. c #D02CC5",
"!. c #CA33C2",
/* pixels */
"                                                                                          X                                     ",
"        . . . . . . . . . . . .                     . .   .   .             .   . . .                   . X . . .   . . .       ",
"    . . O + + = O O + + + = + + O               . + + + + + O O .     X . O O + + = + O O .         . O + + + + + + O + = + .   ",
"  . . + + = = - = = + + - - - = . .       X   . + = = - + + + O .     . O O + + = - + O O .         . O + + - = + + + + = + . . ",
"  . O + + + + = - = + + + + + + .   . .     . O = - + O O . O O . .     O + . . + O .               . . O O + + + O . O O . .   ",
"  . O + O O + + = + + O . + + + . . . .     . O + + O O O O O . . .   . O O . . . . .                 . . O . O O . . . .   .   ",
"  . O + . . . O + O O . . . + + O . .       O + O O + + = + O . .       O O O . .                       . . . . . .         . . ",
"  . O O O O . . . O O O . . O O O .       . O O O . O + = = O . . .     . O . .               .           .   .         . . O O ",
"X   O + + + . . . O . .     . . .         . . . . O . O + + . . O O                         O O .                       . . O O ",
"  . . + = + .   . . . .                 . . O . O O . O + + O O + O                     . . O O . .                     . O O . ",
"  . + + + O . . . . .           .     . O O + + . . O O O O O + O .                   . O O O . O . . . . .     X       .     . ",
"  . + + O . . . .     .         . . . O O O + + O . O O O O + O .                 . . . + + . . O O . . . . .                   ",
"  . + + . . .                 . . O O O + = - = O . O + . . . .           . . . . O O O + + . . . O O . . . .                   ",
"  . + + . .                   . . O O O + + = + O . O O . . . .           . . O O O O O + + O O O O O . . . .                   ",
"    O O O . . .             . . . O + + O O O . . . O . . . . .       X . . . O + + + + O O + + O O . . O . .       .           ",
"    . . . . + .                   . O O O O . . . . . . . .             O O O . O + + + O O + + O O . . . . .                   ",
"          . . O .                   . . . . . # < } x.v.v.c.x.x.c.c.x.} 3 % O O . O O O . O + + O . . . . .         . .     .   ",
"            . .                       . . @ > c } k.x.k.x.h.k.h.x.x.h.x.} J 2 % . . O O . . + O . . . . .           . . . . . O ",
"              .                         & z / 8.f.k.x.g.h.} 8.8.f.x.c.x.c.h.) x * O O + O O O O . . . .           . . . . . O + ",
"      .                     . . .     & 7 / } f.h.g.h.8.x.} ) 7.x.E.U.v.U.c.k.6.b > O + O O O O . O . .         . . O O . O + + ",
"  . . . . .               . + + O . & b { { } 8.8.f.v.E.x.' W 7.x.v.k.k.k.k.k.j.h.D 1 O . . . . + O .       O O . . + + + + O + ",
"  . O O .               . . + + O # / f.f.} ) { h.k.x.U.c.g.( ( k.g.0.g.6.7.q.j.j.g.J > . . . O O O       . O + O O O + + + O O ",
"  . O O .   .           . . . .   < } x.x.8.( ) ' 7.q.g.k.c.7.D ' K K Q W Q 6.g.k.j.g.J > O O O O .       . . O + + O + + + O O ",
"    O + . . .           . .     @ / g.k.k.h.g.8.( ( ' ' { 8.) F K N N M s 0 Q 7.j.k.c.k./ > . . .         . . O + + O O + + O O ",
"  . . O + + .                   , { g.g.q.q.q.0.7.( ( D / / 9.' ( B j k k t 0 K g.c.U.U.j.c # .         . . O + + + O . . O O O ",
"    O + = + . .                 f.x.h.8.` 6.7.q.7.` n G [ S K _ _ f u p g e e D { c.E.c.k.( ;           . . O + + O O . . O . . ",
"  . O O . . . .                 U.v.k.7.6.W ` 0.9.R _ { G N Y X.#.Y y r r w 9 H ' k.c.c.k.7.z X           . . . O O + O O O . . ",
"  . + + . . . . .   . .         U.U.c.j.0.6.6.6.6.[ :.^ T l l %.| M d m 9 9 L J { 8.j.c.k.q.J ; .             . O O + + O O O . ",
"  . = = . . .     . + + .       W.U.Y.l.j.0.0.0.w. .l m.N.N.3.>.[ I N M J Q { J J { 8.k.k.8.) x . . .       . . O O O O + + O . ",
"  . + = O . . .   . + = . .     U.U.Y.I.q.r.t.t.z.5.M.M.1.D.t.y.*. .O.g A x z v c ) 7.8.h.8.( J O .           . . . O O O + O O ",
"  . O + O O . .   . O + O . .   W.W.U.Y.P.n.G.G.R.u.V.2.D.a.b.u.N.*.&.p t q x Z J D ) 7.q.7.( J .               . . . . O . . . ",
"  . O + + O . .   . O O O O     W.W.Y.I.R.Q.L.L.!.K.D.D.A.H.!.F.B.;.&.B X./ D D Z F ) { ' { ( D .               . . . . . . . . ",
"  . . + = + .       . . O O .   W.U.I.I.R.d.J.J.F.d.Z.M.B.p.R.p.2.&.I K J z z c c / { { ( ) / H                     . . . . . . ",
"  . . O = = O . .     . O . .   U.U.U.Y.z.i.B.5.i.s.B.C -.<.w.w.4.#.K ( z 7 8 z b ( { { ( { ( /                       .   . . . ",
"    . O = = . . . . .   . .     U.U.Y.Y.0.,.&.@.>.e.=.l V $.y.0.0.' ' c 7 z z z D { 8.{ ) f./ D                             . . ",
"    . O + + . . . .             j.U.Y.k.q.9.:.] ] O.V h k ..! ! _ ' ( Z b 5 5 z F { 8.} } ) J D                             . . ",
"        . . . . .               , g.c.l.k.k.l.6.Q ..o.i j V K R T K ' H c 4 4 z / } f.{ 7.' H Z     . . . .                     ",
"            . .                 @ J k.I.c.U.j.S n K K a g ..V U +.T 7.7.( D z b ) 8.q.) ' W Z Z     . . O . .         .         ",
"                          .       : 8.U.U.v.k.7.Z W K q s f V o.P R ( 7.D ) { } 7.8.q.7.) J Z 8     . . O + O . . . O O .       ",
"      . . . .             . . .   @ / k.U.c.l.h.( ( D c A 8 A K Z J ( 8.J ( { f.f.q.8.7.( J x $       . + + + O . . + + . .     ",
"    . O + + O .                     < J x.c.x.x.j.7.' ( ` ( ( ( E J ' q.' 7.{ 8.h.q.0.{ W D 6 @     . . = - + + O O + + . . .   ",
"  . O + = = O . .                     : F k.c.c.c.c.j.g.h.k.q.7.q.g.g.q.8.8.7.8.g.g.8.' ( x &       . . + = + O O O + O O . . . ",
"  . + = + O . . . .       . . .         ; J k.c.c.v.U.c.c.k.k.l.c.j.q.q.g.7.( ' k.c.f.{ ) 7 X .     . . O O O . . . O O + O . . ",
"  . + = O . . . . . . . . . . .     .     : ( k.c.v.E.U.c.k.k.g.q.g.8.7.q.' ' 7.{ f.h.8.F > . .       . . . . O . . . . O O . . ",
"  . + + + . .     . . . O O = = O   .       : ) U.U.U.l.l.l.j.7.7.7.( 6.q.0.6.` ( ) ( c 1 O . .         . . O O O . . . O O . . ",
"  . O + . . .       . . O + = = O . . .       ; D 6.q.q.j.q.6.6.' ` 6.6.7.` W E J b 8 ; O O . .           . O O O . . . O . . . ",
"    . . .           . O + = - = O .             @ : A E ` Q Q ~ Q E E W ( E Z 8 4 ; # . . . O .             . . . . . . . . . . ",
"    . . . .           . O + = = O O             .   o 1 %.1.1.-.@.+.U Z H Z 8 & X . . . . . . .                   .   .   .   . ",
"      . O + O .     . . . . O O O . . .   .     . . . . . O . .             .                                                   ",
"    . . O O O .       . . . . O . . . . .       . . . . . . .         .         . .               . .           .               ",
"  . + + . . . .         . . . . . .                   .   .       . . . .   . . . O .           . O O . .       . .             ",
"  . = + .   .             . . . . .                             . . O O . . . O O O . .         . O + + . .     . . .           ",
"  . + + O .                 . .                               . . O O O + + + + O . . .       . . . + = + O .   .               ",
"  . + + O . .               .                               . . . O O O + + = = O . . . . . .     . + + + O .                   ",
"  . + = .                     .                       . . . . . . O + + + + = + O O . . . . .       . . . .                     ",
"  . + + . .     .                                   . . O O O . . . + + + O O + + O . . O . . .         .         . . . . .     ",
"  . O O .     . . . .                   .           . O O + + + O O + + + + O O = = + O O O .         . . .     . . + = + O . . ",
"    . .     . . . .               .     . .         . . + + + + O O + + + + . O = - = + O . . .         . .     . O = = + O . . ",
"            . . .             . . . . .             . . . O O O . . O O . O O O + + + O . . .                   . O + + O . . . ",
"          . O O .         . . . + O . . . .         .   . . . . . O O O . . . O + O O . . . . .         . . . . . . O + . . . . ",
"          . + + O .     . O O + = = O . . . .               . . . O + + O . . . . . . . . .             O O O O O . . . . . . . ",
"          . + + O .   . . O + + = + O O . . .                 . . O O O . . . .   . . . .             . O + + + O . . . . . . . ",
"            . . .     . . O . O O O . . O O . .               . . . . . . . . O . . .                 . O O . . . . . . . . .   ",
". .                 . . O O . . . . . . + + . .                 . . . . . . O . . . . .             . . O O . . . . . .   . . . "
};
