/* XPM */
static char *_422cf85ac334e9681ea1b8572fd66c1mrlch8JHkM2AjN5l[] = {
/* columns rows colors chars-per-pixel */
"64 64 256 2 ",
"   c #010301",
".  c #010B01",
"X  c #070309",
"o  c #0A030D",
"O  c #070C09",
"+  c #0A0B0D",
"@  c #110D0F",
"#  c #011301",
"$  c #011B02",
"%  c #0A130C",
"&  c #08180A",
"*  c #0E0311",
"=  c #0E0B11",
"-  c #110515",
";  c #110B14",
":  c #190A16",
">  c #15041A",
",  c #1A031D",
"<  c #160B1A",
"1  c #1C0A1D",
"2  c #0F1612",
"3  c #131516",
"4  c #22071F",
"5  c #022203",
"6  c #062109",
"7  c #0E2311",
"8  c #312F18",
"9  c #273819",
"0  c #1C0223",
"q  c #1D0B23",
"w  c #1C1323",
"e  c #210227",
"r  c #23022B",
"t  c #290628",
"y  c #230B2B",
"u  c #36072D",
"i  c #24152B",
"p  c #270230",
"a  c #2B0134",
"s  c #2A0B34",
"d  c #2E0339",
"f  c #330233",
"g  c #32013C",
"h  c #39053A",
"j  c #281535",
"k  c #351B37",
"l  c #18282C",
"z  c #193633",
"x  c #28312A",
"c  c #272733",
"v  c #46043B",
"b  c #521939",
"n  c #4D3133",
"m  c #18491B",
"M  c #2C4412",
"N  c #284414",
"B  c #054926",
"V  c #174725",
"C  c #084734",
"Z  c #164538",
"A  c #0C5137",
"S  c #025939",
"D  c #294529",
"F  c #01653E",
"G  c #360242",
"H  c #3A0144",
"J  c #380B45",
"K  c #3D024B",
"L  c #3B1647",
"P  c #183950",
"I  c #323152",
"U  c #36346A",
"Y  c #470447",
"T  c #43014D",
"R  c #4C014D",
"E  c #560349",
"W  c #450254",
"Q  c #4B0054",
"!  c #450A55",
"~  c #470258",
"^  c #4B015C",
"/  c #590157",
"(  c #53015B",
")  c #511651",
"_  c #64074D",
"`  c #670159",
"'  c #76025C",
"]  c #503658",
"[  c #52355D",
"{  c #73234E",
"}  c #4E0261",
"|  c #4D0960",
" . c #520164",
".. c #5C0063",
"X. c #500C62",
"o. c #55026A",
"O. c #5A016D",
"+. c #561768",
"@. c #5D0173",
"#. c #5F0A72",
"$. c #680168",
"%. c #770267",
"&. c #630075",
"*. c #690676",
"=. c #64017B",
"-. c #6B007D",
";. c #750073",
":. c #790279",
">. c #6E1972",
",. c #533966",
"<. c #4E3773",
"1. c #752377",
"2. c #702971",
"3. c #0B4C49",
"4. c #19494A",
"5. c #075846",
"6. c #02554C",
"7. c #015B4C",
"8. c #175745",
"9. c #044C59",
"0. c #174D57",
"q. c #025453",
"w. c #0C5253",
"e. c #015B54",
"r. c #01535B",
"t. c #015B5B",
"y. c #0B5A59",
"u. c #175458",
"i. c #215C46",
"p. c #244D59",
"a. c #2C4A58",
"s. c #33465A",
"d. c #364658",
"f. c #334B5C",
"g. c #3B4B5C",
"h. c #29535B",
"j. c #35535B",
"k. c #34515D",
"l. c #066647",
"z. c #03634C",
"x. c #14644B",
"c. c #056553",
"v. c #026C53",
"b. c #00635B",
"n. c #016B5C",
"m. c #126852",
"M. c #037558",
"N. c #154862",
"B. c #025A61",
"V. c #185965",
"C. c #234766",
"Z. c #374A62",
"A. c #3C4D62",
"S. c #255765",
"D. c #345461",
"F. c #3A5462",
"G. c #354B72",
"H. c #006463",
"J. c #016B64",
"K. c #0A6768",
"L. c #026C6B",
"P. c #116769",
"I. c #027364",
"U. c #037769",
"Y. c #106771",
"T. c #44475E",
"R. c #50415E",
"E. c #474764",
"W. c #49496B",
"Q. c #524272",
"!. c #850269",
"~. c #92146F",
"^. c #870077",
"/. c #960279",
"(. c #A30974",
"). c #008568",
"_. c #680381",
"`. c #6B0184",
"'. c #6F0189",
"]. c #720185",
"[. c #770688",
"{. c #73018C",
"}. c #7B018C",
"|. c #6B1784",
" X c #79158F",
".X c #750191",
"XX c #7B0194",
"oX c #7A0A93",
"OX c #7D009A",
"+X c #722787",
"@X c #830083",
"#X c #8A0287",
"$X c #84008C",
"%X c #970287",
"&X c #830093",
"*X c #890296",
"=X c #82009E",
"-X c #8B019C",
";X c #930094",
":X c #9A0397",
">X c #94009C",
",X c #9B009C",
"<X c #841797",
"1X c #951990",
"2X c #A70188",
"3X c #B5038A",
"4X c #A61389",
"5X c #A60298",
"6X c #B9009B",
"7X c #B51593",
"8X c #88229B",
"9X c #8401A2",
"0X c #8A00A4",
"qX c #8B01AB",
"wX c #8B0AA9",
"eX c #9401A3",
"rX c #9801A8",
"tX c #9A00AB",
"yX c #920EAC",
"uX c #8C16A4",
"iX c #9301B2",
"pX c #9A04B6",
"aX c #9916B6",
"sX c #A401A2",
"dX c #AC01A4",
"fX c #A705AB",
"gX c #AB00AB",
"hX c #B200A5",
"jX c #B400AD",
"kX c #BA03A9",
"lX c #A802B6",
"zX c #B401B4",
"xX c #BC00B3",
"cX c #B301BC",
"vX c #BC00BC",
"bX c #AF14B3",
"nX c #9225AA",
"mX c #9B24B5",
"MX c #A225BC",
"NX c #CC0297",
"BX c #C60198",
"VX c #CE00AA",
"CX c #C600BB",
"ZX c #D500B5",
"AX c #E401B9",
"SX c #BC00C3",
"DX c #B801C7",
"FX c #B612C5",
"GX c #AA27C3",
"HX c #C701C8",
"JX c #D400C9",
"KX c #C112C7",
"LX c #C801D2",
"PX c #D701D9",
"IX c #E500C2",
"UX c #DA01E1",
/* pixels */
"                                                                                                                                ",
"          . . . . . . . . . . .                   . . . . .   .           . .   . . . .                   . . . .   . . .       ",
"    . # # $ 5 5 # $ $ $ 6 6 & $ . O X           # $ $ $ & & w j r r r , O # # $ $ $ $ # . .         . # # $ $ $ $ # $ $ $ $ . . ",
"    # # $ 5 5 5 5 $ & & 6 7 7 2 + * o X       . $ 5 5 & 2 w ! @.o. .} G ; % & $ 5 5 & # # . X       . # $ 5 5 5 $ $ $ $ 5 $ #   ",
"    # $ $ $ $ 5 5 6 & & & 2 2 3 + - @ @ X   . . 5 5 3 y J | _..X_.=.@.~ d i 1 : @ & . .         X   . O & # & # # # . # # . .   ",
"  . # $ # # $ $ 5 $ O = ; q q w , 4 : : - X . & & 2 s ! @..XqXyXOXoX`.=.( ! v u 4 ; X X X X X         X . # # # # . . .   . .   ",
"  . # $ . . . . & & % < r d G s f h v 4 , - ; < q y ! @.@._.uXaXaXwX X|.$.>.^./ f 4 * * * o X   X       O O . O . .         . . ",
"    # $ # # . O O + ; r H ~ } ~ R _ v v t 4 q p s K o.{.=.*.8XMXyXwXnX X[.*X:X;.E p 0 > > * o X X   X           .     .   . # # ",
"    # $ 5 $ O X + < p K } @.`.@...$.` ` E t e g H W =..X_.=.wXwX{.'.wXiXqX0XeX^./ h r e 0 * = % O X   X     X           . # # # ",
"  . . $ 5 & O * < 0 K o._..XOX.X-.*.%.$._ f a g K W @.{.{..XqX0X&.@.OXiXiXtX>X@X$.Y p r 0 = 2 = + . X   X X X X         . # # . ",
"  . # $ $ # = > 0 G @..X9X9X9X9X=X].&.%.` Y g G H T } =.=XiXpXqX'.@._.OXiXtX:X#X;.Y a p q q ; = @ O . X O o o o         .     . ",
"  . $ $ # * 0 0 0 G _.qXiXiXqXiXqX=X}.^.^./ Y g g H Q &.>XlXtX=X.X{..XOXiXfXsX,X@X( g s i w < * @ O O O + + o o X X             ",
"  . $ $ = > p a r G '.qXiXiXiXiXiXiXeXhX2X%.E f a H Q &.tXzX*X].9XiXiXiXiXlXzXzX,X$.G s j w q < ; + + + + + - * * o             ",
"  . $ 2 = 0 p p 0 K '.OXXX9XiX9XOX0XpXCXkX%.E g g T  .;.dXxX$X_.qXpXpXpXiXfXzXCXzXoXX.! K s y q < ; = = + = o + o o             ",
"  . % < < 0 0 r r K .XOX=..XqX.X_.*XlXCX6X' Y Y W ( &.@XjXjX$X`.OXqXqXqXeXsXhXxXcX-X|.*.X.J p p q < - ; * + * o o X   .         ",
"    * < q r p d G } OXXX=. XuXwX}.lXHXJX6X$.Q O.@.{.;XdXsX;X`.@.@.=.=.=.XX,XjXgX-X-.O.@.o.G q p q 1 - * + + + o * o X           ",
"    * 0 0 e d H K @.OXOX.XoXGXaXpXDXPXLX,X.. .'.OX-XcXCXsX}.=.O./ / W ^ :.>XlX0X_.} } o.~ d q 0 r 0 0 - * = o * * * X O     .   ",
"    > r 0 0 d H ~ @.OXiXqXMXGXGXDXUXPXDX-X&.@..X9XiXDXLXSXtX].;./.!.Y / #XsXtX9X'.O.} K K p d K K d p e 0 > - > > - O O . . . # ",
"    , d e , r H K @.OXiXpXaXGXKXUXUXDXpX{.=._.OX9XqXcXLXPXHX;X^.3X~.E _ %X;X&X.X'.@.} K d G K @.} W H d r 0 0 > > > + O . . # $ ",
"    0 K p 0 0 d ~ O._.OXiXpXpXLXUXLXpXqX`.o.=.OXXX'.-XSXPXIXVX3X{ b v E ` &.=.=.@.} K d d ~ @.'.=.o.^ K a 0 0 > - * ; = O # $ $ ",
"    j ! d e a K @.@.@.`.OXqXpXLXUXDXiX.X=.@.'.wX=X`.*XgXVXAXNX(.n 8 b _ _ .. . .} K d 0 G @.XX.X'.=.O.} T a y q ; ; < 2 & # # # ",
"    k +.J d } `..X'.=.@._.{.qXDXPXHXfX{.`.XXyXmXaXwX>X5XNXNX~.n 8 M D { ~.~./ W K d p 0 G {.OX`.'.{.`.&./ R h y ; + ; % $ $ $ # ",
"  . L +XX.~ `.qX9XOX'.@.o.@.`.;XgXjX5X@X$XtXFXaXbXcX5X%X(.~.b 8 M M M n ~.~.;./ K d 0 r K .XXX&.`.OX{.-.;.` Y y < ; @ % & $ # # ",
"    ! OX_.@..XqXiXqXOX=.^ W W / ' ^.%X%X,XcXcXdXhXCX6X(._ n u 8 9 M M M n ~.%X}. .K p d ~ '.{.@.'.9X$X:.;.$.Y s < 3 ; ; + & # # ",
"    K OX'.'.'.oXyXaXqX.X@.W g f v ` !.%X5XSXvXhXVXVX%X' b 8 8 8 9 M M N D R.~.~.:.$.R K ~ {.{.'.-XlXtX#X:.$.! j < 3 : : ; O # # ",
"    J |.oX.X_._.nXMXwXOX'.} p e a R $.@X,XjXzXxX6X2X%.b x x 9 9 9 M M N D D a.2.:X:X:./ ^ }.=X-XlXHXvX>X;.X.T h y 1 4 1 ; O . # ",
"    s #. XuX|.*.nXmXoX'.-.^ p 0 r T &.$X*X$X;X5X/.!.) k x z D 9 D m m N V V m ] 2.4X5X$./ ;XjXzXSXSXfX}.@.^ Y h u i t 1 < O . . ",
"  . i X. X8X[.'.mXnX_.@.@.~ p e a W &.XXXX$.;./.~.b k x x z Z Z D V B B m V m N n 4XxX@X:.2XkXCXzXtX&X`.&.../ ) v v u w : O # . ",
"  . i X.#. XoXoXaX X=.@._.o.G g K } =..X{.$.^.5X>.L l c z z z C V B B B B B B m D 1XCXxX5X/./.#X@X}.].}.;X;X^.%./ b v u w 2 # # ",
"  . i ! | #.'.9XiXOX`.`.{.=.^ ( ..&.].{.$X^.#X>X XI P P z C C C B B B B B B B B 4.2.bXJXZX!._ / ( &.$X,XjXkXdX#X` Y v u 4 2 # # ",
"  . w L J X.'.OXqXOXOXOXOX].;.^.;X5X>X@X^.2X%X#.U P P P 3.z 3.C z B B B B B S F A a.+XFXJX^.E h R -.tXHXHXzX1X<X*.( h t 1 @ . . ",
"    w J J K O.'.OX9XwXqXeX*X^.2X6XCXxX2X2XVX4X<.P U P P P 3.4.3.C C S S S S S F F F Z.bXJX,X%.R $.*XSXLXcX:XnX8X Xo.H t - + . . ",
"    1 k j s g ^ ].,XgXxXCX5X^./.3XCXZXVXZXIXfX<.P C.9.P 3.3.3.5.S S l.l.S S S l.F F j.1XJXvXsX%XsXHXHXlXXX*.+X8XoX=.^ d < O . . ",
"    ; y 3 3 e v %.5X5XhX5X^.` %.^.2XVXZXAXZXwXU N.C.9.9.9.3.6.S 5.z.l.l.x.l.S l.l.l.h.<XcXHXvXsXzXLXLXlX:.X.|.<X'.@.o.G , O . # ",
"    O @ 7 3 : u %././.;.` Q T R R / %.BXVX5X|.N.N.B.r.6.3.6.7.7.l.l.m.m.m.5.8.5.8.A I >.:XcXgX;X>XlXHXCX$X#.'.[.o.}  .G > X . . ",
"    . O & 7 @ t E ` ` E g a d a g G ` 2X6X>.U N.B.B.b.q.6.6.7.c.v.v.m.c.c.l.8.8.A 4.4.I +XfXgX:.^.:XzXzX*X=.{.'.X.~ } G >     . ",
"          O @ 1 f f f p r r r r p h ` /./.U 0.r.B.L.J.b.y.V.B.n.I.M.M.n.n.m.8.8.8.A 8.8.,.bXhX;.%.^.;X-XXX{.OX'.O.^ ~ d -       ",
"            O > 4 e e e p p p r e f E !.>.a.t.r.H.L.J.J.K.P.P.P.U.M.M.n.n.v.v.x.x.l.5.S W.bXkX%.%./.#X{..XXXOX.X=.o.K r *       ",
"            X * ; , e r d G g r e f v ' >.a.t.b.b.n.J.L.L.U.P.P.I.I.M.n.v.M.M.M.m.l.l.l.W.FXCX%.' !.!.&._.[.oX.X{.o.s < +       ",
"        . . X o - , r g G g r r e f v ` +.S.J.L.K.K.L.L.I.J.I.K.U.M.v.v.v.M.M.M.m.x.x.i.W.FXxX' v _ / Q ^ o.@._.=.^ s 3 O       ",
"    . # $ $ % ; o , a g g p 0 0 e a Y E ) y.U.Y.Y.P.K.J.n.b.H.n.I.M.M.v.v.M.M.M.m.x.i.i.Q.KXCX` h f H T K !  .@.| J q 3 O .   . ",
"  . # $ 5 & % - - , f g p r 0 0 e a h h j y.U.U.U.P.B.K.n.n.b.n.M.M.v.z.v.v.v.M.M.x.F i.,.KXkXR f g / $.( ! ! ! J s q 3 + O . . ",
"    $ 5 & = - - - e Y v p e r r r g g f j w.U.).U.P.J.n.n.n.b.n.M.v.z.z.c.z.z.l.v.l.x.Z Q.KXgXR h / :.#X:.o.~ J 0 q < = # & . . ",
"  . 5 5 & = > > ; u ` ` Y g d g g g H v L P.U.).).U.I.I.J.b.H.b.b.e.7.7.z.7.5.7.l.l.x.i.Q.bXjX/ ` %XdXfX-X-.o.K p q > = % # . . ",
"  . $ 5 & + > > : u ' ' T H H K K H Y _ [ m.U.).).).I.U.J.H.B.B.q.q.7.6.6.6.6.6.7.5.8.4.Q.CXxX:.@X5XxXcXiXOX@.! d q - + + & .   ",
"  . # # O + > , 4 u v _ Y H K Q ^ G f ` >.V.U.U.I.I.n.n.n.b.B.B.9.9.9.q.q.6.q.e.w.w.4.u.Q.KXJX,X;X>XpXpXpXqX.Xo.J q > = + # . . ",
"    O O X o * , e v _ ` / ( ~ O.@.^ E %.>.S.I.I.J.J.J.b.b.e.B.9.9.9.q.e.q.e.t.e.q.w.4.8.Q.FXLX,X&X=XiXiXFXaX9X_.K y < = + O . . ",
"    + = = * * > f Y ' /.%X}.=.].XX:.;.!.>.C.J.I.L.J.J.H.B.r.9.9.q.r.b.b.b.b.t.t.q.6.w.w.Q.FXSX&X{.OXqXpXaXMXaXXX} d , * o   .   ",
"    X ; 3 = = , p Y $.%X6XgXrXfXsXeX$X/.>.C.L.L.L.L.L.H.B.r.9.9.r.e.c.e.t.t.t.w.w.5.5.w.U yXtX}..XOXOX=XaXMXuX{. .g 0 * X       ",
"    X < = = ; 0 p G ( @XxXCXSXJXJXzX5X%X>.G.L.L.L.L.L.B.H.t.r.r.9.9.w.w.q.w.0.u.u.w.w.u.Z.|.&XOX=X0X&XoXnXmX X=.o.K 0 * X       ",
"  O 2 3 < > , 0 a H ~ -.sXgXjXCXJXCXkX3X~.G.Y.Y.Y.V.V.V.u.y.w.w.w.w.u.0.0.0.0.p.u.p.u.h.U >.OX=XtXDXcXlXaXaXoX=.@.! 0 o o       ",
"  # 2 w y r 0 e d K ~ =.OX-X>XgXSXkXBXNX1XQ.Y.S.V.C.p.p.p.p.u.u.u.0.0.p.p.p.p.p.h.h.h.h.W. X;XrXDXPXPXLXDX0X{.=.&.W 0 X o       ",
"  . 2 i p d a a G K ^ =.XX0X-XtXtX;X2XNX7XQ.S.S.S.S.h.k.j.a.a.p.p.0.p.a.a.a.a.f.Z.Z.s.f.Q.1XvXHXHXPXPXLXtX].'.&.@.K 0 * o       ",
"  . 3 j s J H K K ~ o.-.{.OX9XOX{.=.:.6X7X<.S.h.j.D.j.f.j.g.f.U Z.a.a.a.d.d.d.d.A.g.d.f.Q.hXJXCXCXDXDXlX[.o.@.@.^ H r > * X     ",
"  . 3 J K K K W ^ o.&.-.=.'._.=.@. .$./.4X,.k.D.D.D.F.A.g.d.A.Z.A.d.s.d.d.d.d.U E.g.T.E.<.bXjX;X}.XX&X}.O.W } ^ K G p 0 > X     ",
"  . i J W W ^ o.@.].$X$X}.}.}.-.&...;.%X~.E.f.Z.D.D.F.A.d.d.A.E.E.T.g.d.T.g.T.g.T.T.T.] 2.bXdX:.&.@.=.=. .W ^ ~ K G H a e o     ",
"  . q !  .@.=._.{.-XzXvXcXSXSXzXtX;X#X5X4X<.f.Z.Z.D.D.f.f.f.j.j.g.E.W.F.F.F.T.E.T.] ] [ 1.bXjX&X{.=.=.=.O. .o.o.} } } K s < . . ",
"    r  .@.@.@.=.{.-XgXvXHXHXJXCXjX5X5XBX4X,.s.f.D.Z.f.f.f.f.D.j.g.g.F.F.W.F.E.E.,.[ [ [ 1.kXjX$X=.@.@.@.o.o.o.o.o.o.X.K J < . . ",
"    g @.o. .} o.@.=.].#X,XdXdX5X%X5X3XNX4X,.I f.Z.s.s.a.f.g.D.D.j.g.F.E.E.E.E.E.,.[ [ [ 1.dXsX*.^ ~ ^ } } } ^ ^ ^ ^ ! J g , . . ",
"    G _.o.~ }  .O.@.@.&.:.:.^.:.:./.(.NX4X,.f.a.a.I a.a.j.j.D.j.F.g.F.A.T.E.E.E.,.[ [ [ 1.fX,XO.W W W ^ ~ W W W W K K G d > . . ",
"    G =.o.} o.@.o.@.@.O. . ... .( $.^.3X3X,.a.a.f.s.s.a.a.j.j.j.j.f.F.T.T.E.E.E.,.] ] ] 2.fX,X..~ ^ ^ ~ W K J K K K K G d , . . ",
"    0 G a p s s s d a r r y y y i s h E b c l l l l l l l l z z z z z z x x c x c c c i k Q Q a r p r r y q y w q q q , 1 = . . ",
".           . .     . . # # # # # # . . # # . .                 . . . . . . # # . . . .               . # # # . . . .   . . . . ",
".                     . # . . . . . . . $ $ .                     . . . . . . # . .   .             . . # # . . . . . . . .   . "
};
