/* XPM */
static char *a3e01d3470074b30b5c5170965bf6415IJsJht77ubSjcz6w[] = {
/* columns rows colors chars-per-pixel */
"64 64 196 2 ",
"   c #000300",
".  c #0A0205",
"X  c #000B00",
"o  c #0B0807",
"O  c #0B020B",
"+  c #070E0A",
"@  c #0A0A0B",
"#  c #14030B",
"$  c #1B010E",
"%  c #120C0A",
"&  c #001300",
"*  c #0C1500",
"=  c #001B01",
"-  c #071209",
";  c #09130B",
":  c #091A0B",
">  c #141302",
",  c #0E0711",
"<  c #140214",
"1  c #130B14",
"2  c #1C0C13",
"3  c #170218",
"4  c #1C021C",
"5  c #160E1B",
"6  c #1D0B1D",
"7  c #0E1412",
"8  c #121315",
"9  c #141B16",
"0  c #141319",
"q  c #171D1D",
"w  c #211D01",
"e  c #240112",
"r  c #2B0116",
"t  c #270813",
"y  c #24071A",
"u  c #2D001B",
"i  c #390014",
"p  c #35001C",
"a  c #38001C",
"s  c #281A18",
"d  c #002201",
"f  c #032103",
"g  c #002501",
"h  c #012801",
"j  c #17231C",
"k  c #232500",
"l  c #3B2D03",
"z  c #3E3000",
"x  c #3E261A",
"c  c #1F0520",
"v  c #1B1B23",
"b  c #1E1B27",
"n  c #240224",
"m  c #2A0226",
"M  c #230B22",
"N  c #280D25",
"B  c #270328",
"V  c #2C012C",
"C  c #2D0C2B",
"Z  c #360223",
"A  c #390A25",
"S  c #32012B",
"D  c #300A2E",
"F  c #291924",
"G  c #24152B",
"H  c #241B2C",
"J  c #321428",
"K  c #2E0030",
"L  c #320032",
"P  c #340133",
"I  c #3A0135",
"U  c #350B30",
"Y  c #3D0A37",
"T  c #3B003B",
"R  c #3D013B",
"E  c #261831",
"W  c #2A1C34",
"Q  c #2E1D3A",
"!  c #321E3D",
"~  c #24222F",
"^  c #3C282A",
"/  c #262533",
"(  c #2E2237",
")  c #2E233B",
"_  c #37253D",
"`  c #3C233F",
"'  c #450019",
"]  c #5D0E1E",
"[  c #5A3D00",
"{  c #5F3D1C",
"}  c #6C2D0E",
"|  c #70390E",
" . c #773C1E",
".. c #43012A",
"X. c #4A0029",
"o. c #53192F",
"O. c #41013E",
"+. c #48073A",
"@. c #4B013F",
"#. c #441333",
"$. c #421E31",
"%. c #4A1D37",
"&. c #4B123E",
"*. c #791623",
"=. c #5D2F2A",
"-. c #5D332F",
";. c #452839",
":. c #462A3B",
">. c #542E34",
",. c #5D3630",
"<. c #66392A",
"1. c #713A26",
"2. c #793F25",
"3. c #653C37",
"4. c #6D3C34",
"5. c #7A4E02",
"6. c #6F4613",
"7. c #7F431F",
"8. c #5F4128",
"9. c #6F412A",
"0. c #714228",
"q. c #644436",
"w. c #784A36",
"e. c #362143",
"r. c #352B44",
"t. c #3A2649",
"y. c #382848",
"u. c #3B2B4D",
"i. c #3E2D51",
"p. c #3F3053",
"a. c #440042",
"s. c #4B0247",
"d. c #460840",
"f. c #4C0D42",
"g. c #4E0049",
"h. c #52004D",
"j. c #5E1A41",
"k. c #550050",
"l. c #402944",
"z. c #583548",
"x. c #412F54",
"c. c #4B2C5A",
"v. c #423156",
"b. c #4B3553",
"n. c #433258",
"m. c #49335C",
"M. c #5A3454",
"N. c #59355C",
"B. c #6C3754",
"V. c #4C3360",
"C. c #59356B",
"Z. c #6C3D6B",
"A. c #743C62",
"S. c #5C4444",
"D. c #694149",
"F. c #B2020A",
"G. c #C90008",
"H. c #994E0F",
"J. c #895504",
"K. c #955900",
"L. c #824414",
"P. c #944617",
"I. c #924F18",
"U. c #8D541C",
"Y. c #9D5A15",
"T. c #955619",
"R. c #A9560D",
"E. c #B95906",
"W. c #A45914",
"Q. c #927401",
"!. c #AD6707",
"~. c #B46905",
"^. c #B2630C",
"/. c #B06F0A",
"(. c #BD6B0B",
"). c #AA6312",
"_. c #AA6319",
"`. c #B76C10",
"'. c #A77210",
"]. c #88532C",
"[. c #974B3A",
"{. c #A45C3D",
"}. c #8C652A",
"|. c #C25900",
" X c #C36D03",
".X c #CA6D01",
"XX c #C47707",
"oX c #CC7502",
"OX c #D37A00",
"+X c #884566",
"@X c #8F4975",
"#X c #934B72",
"$X c #AC8F00",
"%X c #C48D05",
"&X c #C69C02",
"*X c #9C5083",
/* pixels */
"                    X                                                             X                                             ",
"        X X X X X X X X X X X X                     X X X X                   X X X X X                 X X X X X X X X X       ",
"    X X & = d = & & = = = g = = X X           X & = = = = & = & X X     X & & = f = = & X X X       X & & = d f & = & = = = X   ",
"  X X = = d g h d d = = g g h d X X     O O   X 8 9 f d = = = & X       & & = = f f = & & X         X & = = d f = = = = f = & X ",
"  X & = = = = g g g = & = = = = X X X X 4 I < & y D ; & & & & & X     X & & X X & & X X             X X & & = & & & & & & & X   ",
"  X & = & & = = d d & & & & = = X X @ B # 3 @ & : M ; & X & & X X X   X & = X X & X X                 X X & X & & X X   X       ",
"  X & = X X & X & = & & X & = = & X o m 4 X & = & & = = d = & X X       & & & X X                       X X X X X X X     X X & ",
"  X & & & & X X & & & X X X - & X 1 B n O X & = & X & = d d & X X X     X X & X               X           X   X   X       X X & ",
"    X = = = X X X & X X   3 m o   3 R g.B X X @ + & & & : = & X & & X                       & & X X                     X X & & ",
"  X & = g = X   X X X     4 R 3     O T I 1 X B @ X X & N 7 X & = &                     X X & & X X                     X & & X ",
"  X = = = & X X X X X X   3 P 3 X X @ 4 R V - C 2 X & & & 2 & = X X                   X & & & & X X X X X X             X     X ",
"    = = & X X X X X       3 K < X X @ 6 B K c Y 6 X & & & - & & X                 X X X = & X X & & X X X X                     ",
"  X = f X X X             3 B @ X 6 V c B K K P n + = & X X & X           X X & X & X & = = X X X & & X X X X                   ",
"  X = = X X             . O < o M R R K K K K P K 1 & & X X X X         X o X & & & = & = = & & & & & X X X X X                 ",
"    & & & X X X       O 4 O o n s.a.P K K V K R O.P @ X X X X           X & X & = = = = & & = = & & X X X X X X     X           ",
"    X X X X & X X O < n B O o L g.T K L V S D R g.h.U @ <   X X         X & X X & = = = & & = = & & X X X X X         X   .     ",
"          X X & X . c B O   . V R P K T S Z A L a.g.k.4 I B .         X & = & X X & & & X & = = & X X X X X         X X X     X ",
"            X X   . O O       3 B K P d.#.p Z V T g.k.R M O.L .     X X & = & & X X & & X X = & X X X X X           X X X X X X ",
"              X     O     O V V K K T &.%.A a S K O.h.h.< 4 s.3     X X & & & = X & = = & & & & X X X X           X X X X X & = ",
"      X                 O T g.a.P T d.%.&.S p Z V T h.k.B 3 I 3       X X X & & X X & = & & & X X & X X     X X X X & & & & & = ",
"  X X X X X             n h.k.a.T a.f.$.f.@...a S T R a.n n V O         X X X X X X & & X X X & = & X       & & X X = = = = & = ",
"  X & & X             O B k.h.a.R h.&.$.f.k.X.a S L K P B V B             X   X X X X X X X X & & & X     X & & & & & = = = & & ",
"  X & & X   X           < T R T T g.f.$.f.@...Z S V K n V n @   X                   X X X & X X & X       X X & = = & = = = & & ",
"    & = X X X         X X < n K T s.f.#.#...p p S K a.V 7 - & & X X                 X X & X & X X X     X X X X = = & & = = & & ",
"  X X & = = X               3 K K a.g.+...i u I s.P s.s.C - & & X X           X         X X X X         X X & = = = X X & & & & ",
"    & = = = & X             . c K R h.+.a r A &.g.I g.h.s.- = & X X X X     X             X X           X X & = = & & & X X & X ",
"  X & & & X X X               < V P I Z u i ] o.Y L I h.T - & & X X X X                                   X X X & & = & & & X X ",
"  X = = X   X X X   X X         3 V S u r i F.*.U K V T n & X X X & X X           X         X X X             X & & = = & & X X ",
"  X d d & X X X   X = = X       < K m u r ' G.*.U K K 4 - = & X & X X X     X X & & X     X & & X X X       X X X & & & = = & & ",
"  X = g & X X X   X = d X X     O c V u u i ] o.U K V 1 & = & & X X q ! E   X & & X X   X X = = & X           X X & & & = & & X ",
"  X & = & X X X   X & = & X X     < B m r r p A D K B @ & & & X = : C.C.C.c.  X X X     X X = = X               X X X X & X X X ",
"  X & = = & X X   X & & & &         < B u r r u V 3 + X & & X & & u.n.n.V.C.5         X X & & X X               X X X X X X X X ",
"  X X = g = X       X X & & X           3 y r $ X & & = = = & & & u.} E.z.x.G             X X                       X X X X X X ",
"  X X & g d & X X     X & X X           . t i p % & = = = & & X 9 C } E.w.m.c.                                        X   X X X ",
"    X & g d X X X X X   X X         X   X % t # X X & & & X = * v N |  X,.m.N.$.[ l                                         X X ",
"    X X = = X X X X                 X X & X e % X X & X X X $X&Xq N y J D.~.).XX~.[                                         X X ",
"        X X X X X                 X X & = f t > X X X X X X > !.&X:.` z.{.OX(.z.( X X X             X X X X                     ",
"            X X                     X & f d t % & X X X X X X Q.).S.D.OXoX.XP.t.v.( X X             X X & X X         X         ",
"                          X         X X & & 2 A % X X X X ; 8 L.oX XoXXXY.I.! ! v.r.& & X           X X & = & X X X & & X       ",
"      X X X X             X X X     X X X X s j.F : + @ 0 ) u.Q .XI.P.W.L.! G 8 u.u.j - X             X = = = & X X = = X X     ",
"    X & = = & X                         X X ;.+XM.u.r.r.i.t.! 5 U.x.z.W.=.E   @ ) v.u.v X X         X & d g d = & & = = X X X X ",
"  X & = g d & X X                         X $.A.N.x.i.u.e.W 0   u.n.].[.! 5 X + v t.p.~ X X X         X = d = & & & = & & X X X ",
"  X = d = & X X X X       X X X       X     $ J t.e.Q Q E O   > n.u.}.m.G   X X ; ) p._ - X X       X X X & & X X X & & & & X X ",
"  X = d = X   X X X X X X X X X X   X       . u C G 5 5     X [ u.q.].i.H X   X + v r.u.q & X X       X X X X & X X X X & & X X ",
"  X = = & X X     X X X & & d = X   X         u $ X X X X X X K.:.%X3.D.8.l X   X v t.i./ & X X         X X & & & X X X & & X X ",
"  X & & & X         X X & = g g & X X X       r e . X & X X & J.T.%X3.'./.6.    + v t.i./ & X X           X & & & X X X & X X X ",
"  X X & X           X & = = h g & X           e $   X & & & = { OXOX^..X0.! o   X G B.Z.r.X X X             X X X X X X X X X X ",
"    X X X   X       X X & = g d & & X         e # X & & = = : <.OXOX.X2.;.u.H   @ l.@X*XM.X X X                   X   X   X   X ",
"      X & & & X X   X X X X & & & X X X   X   # r o X X & & ; H.OX.X|.0.e.n.u.8 2 B.+X#Xz.                                      ",
"    X X & & & X       X X X X & X X X X X     . ..% X X X X @ =..X|.0.Y.:.u.i._ s ^ B.+X$.        X X           X               ",
"  X = = X X X X         X X X X X X           . X.$ X       o e.|.|.i.q.,.e.t.,.J.z F J 2       X & & X X       X X             ",
"  X d = X X               X X X X X           . ..$         + e.4.|.v.b.).0.T.Y.5.k + X         X & = = X X   X X X X           ",
"  X = = & X X               X X               . p #         @ t.x.(.n.b.oXY.9.q.^ & X X     X   X X = g = &     X               ",
"  X = = & X                 X                   e .   X     + e.n. Xn.l.^.U.e.u.u.: X X   X   X   X = = = & X                   ",
"  X = d & X                   X                 $ u . X X X ; ! n.(.p.e.0.^.>.p.u.v X X X X X       X X X X                     ",
"  X = = X       X                               $ r @ X & & ; ! n.E.t.e.W.R.l.u.v.u.v X & X X X         X         X X X X X     ",
"  X & & X     X X X X                   X       $ r o & = = : Q t.P.<.W.1.>.u.x.n.n.r.9 & & X         X X X     X X = = = & X X ",
"    X X     X X X X               X     X X     $ e * & & = : e.e.;.R.,._ e.i.n.n.n.i./ & & X X         X X X   X & g g = = X X ",
"            X X X             X X X X X         $ e   X X & ; _ 4.R.1.e.e.e.u.n.n.n.v.r.7 X X                   X & = = X X X X ",
"          X & & X         X X X & & X X X X       e .   X X w ~. X>.` e.x.x.n.n.n.n.n.x.H X X X           X X X X X & = X X X X ",
"          X = = & X     X & & = d d & & X X X     e .       %  .<.t.i.x.n.n.x.t.t.t.v.v.) +             & & = & & X X X X X X X ",
"          X = = & X     X & = = d = & & X X X     e .       @ _ ! e.e.e.e.x.i.i.e.e.e.t.W ,           X & = = & & X X X X X X X ",
"            X X X   X X X & & X X & X & & & X X   .           5 5 2 0 0 0 0 0 0 5 8 5 5 1 ,           X & & & X X X X X X X X X ",
"X X                 X X & & X X X X X X = = X X                 X X X X X X & X X X X X             X X & X X X X X   X X X   X "
};
