/* XPM */
static char *_e0e6434eeb44645805e1c8edf05a9b7VVtgOfw8mEC2SZZf[] = {
/* columns rows colors chars-per-pixel */
"64 64 208 2 ",
"   c #000300",
".  c #0C0306",
"X  c #000B00",
"o  c #0A0B05",
"O  c #070108",
"+  c #0B030B",
"@  c #0A0B0C",
"#  c #13020A",
"$  c #1C040E",
"%  c #120B0D",
"&  c #1E080F",
"*  c #001300",
"=  c #0C1202",
"-  c #001B01",
";  c #0A1C05",
":  c #061509",
">  c #0A140C",
",  c #0A180A",
"<  c #131200",
"1  c #14150B",
"2  c #0F0210",
"3  c #0D0C11",
"4  c #140214",
"5  c #120B14",
"6  c #170118",
"7  c #1C041C",
"8  c #140C19",
"9  c #1B0B1B",
"0  c #0F1412",
"q  c #141216",
"w  c #15131B",
"e  c #1B141C",
"r  c #141919",
"t  c #231901",
"y  c #240213",
"u  c #2A0116",
"i  c #2D011C",
"p  c #250A1A",
"a  c #3A0014",
"s  c #34011B",
"d  c #39021D",
"f  c #300819",
"g  c #2C1B12",
"h  c #211B1B",
"j  c #002101",
"k  c #002301",
"l  c #002501",
"z  c #012801",
"x  c #18201C",
"c  c #372404",
"v  c #393700",
"b  c #3F2F17",
"n  c #1F0121",
"m  c #1F0820",
"M  c #1B1423",
"N  c #1F1A26",
"B  c #210522",
"V  c #230224",
"C  c #250325",
"Z  c #2A0225",
"A  c #260B23",
"S  c #2A0826",
"D  c #2C012C",
"F  c #2E002E",
"G  c #360124",
"H  c #3C0122",
"J  c #370A21",
"K  c #3A0E26",
"L  c #32022D",
"P  c #25172D",
"I  c #291428",
"U  c #221B2C",
"Y  c #341B25",
"T  c #2E0030",
"R  c #340134",
"E  c #390236",
"W  c #3A0437",
"Q  c #340930",
"!  c #3A0039",
"~  c #3C013B",
"^  c #3F003D",
"/  c #291B33",
"(  c #2F1C3A",
")  c #351732",
"_  c #311E3D",
"`  c #22212A",
"'  c #3B242A",
"]  c #292534",
"[  c #2A2833",
"{  c #2E233B",
"}  c #332437",
"|  c #36233A",
" . c #3A223F",
".. c #470019",
"X. c #62051B",
"o. c #60101F",
"O. c #72300D",
"+. c #763D0D",
"@. c #663D1D",
"#. c #410026",
"$. c #420229",
"%. c #4B022A",
"&. c #53012F",
"*. c #430132",
"=. c #4A013D",
"-. c #44083B",
";. c #431030",
":. c #431C33",
">. c #4B1E37",
",. c #4B133D",
"<. c #511A30",
"1. c #6C1827",
"2. c #701724",
"3. c #41273D",
"4. c #472A38",
"5. c #522E35",
"6. c #4B3439",
"7. c #5B3431",
"8. c #54333D",
"9. c #6E3B27",
"0. c #65362C",
"q. c #6D3C29",
"w. c #743D29",
"e. c #643C36",
"r. c #564400",
"t. c #614600",
"y. c #794503",
"u. c #674312",
"i. c #6F412A",
"p. c #734227",
"a. c #7B4223",
"s. c #674737",
"d. c #654039",
"f. c #754838",
"g. c #352243",
"h. c #3A2343",
"j. c #372847",
"k. c #3A264A",
"l. c #372A48",
"z. c #3C2A4C",
"x. c #3E2D51",
"c. c #440042",
"v. c #4B0047",
"b. c #4C0A43",
"n. c #4D004A",
"m. c #52004D",
"M. c #550050",
"N. c #611E43",
"B. c #402847",
"V. c #4B2B41",
"C. c #422D4F",
"Z. c #522C46",
"A. c #46314F",
"S. c #563A4C",
"D. c #412E54",
"F. c #482E57",
"G. c #423156",
"H. c #4B3553",
"J. c #433258",
"K. c #4B335F",
"L. c #533557",
"P. c #6E3955",
"I. c #4D3461",
"U. c #533364",
"Y. c #59356C",
"T. c #653966",
"R. c #763F65",
"E. c #5A4047",
"W. c #73434B",
"Q. c #BC0209",
"!. c #D40006",
"~. c #995D02",
"^. c #89491A",
"/. c #954716",
"(. c #904519",
"). c #985817",
"_. c #A5540E",
"`. c #AD590E",
"'. c #B85606",
"]. c #A25611",
"[. c #A55D16",
"{. c #9C7A01",
"}. c #AE6A07",
"|. c #AD640F",
" X c #B86A07",
".X c #B6670F",
"XX c #BC6E0C",
"oX c #A96316",
"OX c #B66B11",
"+X c #A87210",
"@X c #864F2C",
"#X c #895328",
"$X c #91483A",
"%X c #A85E38",
"&X c #87612D",
"*X c #C15800",
"=X c #C46B04",
"-X c #CA6900",
";X c #CB7502",
":X c #C37B04",
">X c #D27A00",
",X c #80415F",
"<X c #8B486A",
"1X c #924B75",
"2X c #BF8808",
"3X c #B89700",
"4X c #C39803",
"5X c #9B4F82",
/* pixels */
"                                                                                                                                ",
"        X X X   X X X X X X X X                   X X X o X               X X X X X X X                   X X X X   X X X X     ",
"    X X * - - j - - - - - l - - X X           X * - - - - * - * X X   X X * X - j - - * X X         X * * - - ; - - * - j - X   ",
"  X X - - j z z j - - - l z z j X   X         X - l j j - - - * X       X = q q l j , @ * X X       X * - j l j - - - - j - X X ",
"    * - - - - l l l - * - - j - X   X X     X * - z - X * * * * X     X * : L 7 * 0 E p             X X * * - - * * * X * * X   ",
"  X * - * * - - l - - * X * - - X X * X     X * j - * * X * * X X X   X - : C + X + 6 # Z 2           X X * X X * X X X X       ",
"  X * - * X * X * - * * X * - - * X X     X * - * * - - l - * X X X     * * * X X X   6 D               X X X X X X X       X * ",
"    * - * X X X X * * X X X * * X X       X * * X X - - z - * X X X     X X * X       + 7 R 4     O     X X   X X         X * * ",
"  X X - j j X X * * X X   X X             X X * * * * * - - * X * *   +         4     p n.^ 9 * o C 7             X   X X X * * ",
"    * - j - X   X X X             X   X X X X * * X X * - * * * * * + D       + T   2 R E 4 * - 4 E V                   X X * X ",
"  X - - - * X X X X X X           X X X X * * * X X X * * - - * X X 4         4 R O C ^ m : * X 5 R 7   X X               X X X ",
"  X - - * X   X   X             X X X X * * l - * X * * * * - * X X           7 ! 7 T T 9 > o X % D m X * X                     ",
"  X - - X X                   X X * X * - - z j * * * - * X X X X         X X 7 R D T D 9 S 9 X o C 9 X X X X                   ",
"  X - - X X X                 X X * * - - j j - X X * * X X X           X X 5 D T T T D T ~ ^ A > 3 5 X X X X                   ",
"    * * * X X X             X X X * * - * * * X X X X * X X X           X @ R ^ =.T T T T R c.n.A @ @ 7 % X X X     X           ",
"    X X X * * X                 X X * - * * X X X X X X X   X         6 o Q m.m.~ R D D T T ! n.W @ @ C C 5 .         X         ",
"          X X *                     X * X X * X X X X X X           V W 8 M.M.c.L L G G E T T E D @ X + C B O         X   X     ",
"            X X                           X * X   X   X X       O R c.p ^ M.n.R L G H ;.b.R T T 9 X X X + 6         X X X X X * ",
"                                                X               6 n.7 5 m.m.=.T L s J 4.,.^ R D T S 5 X           X X * X X * - ",
"      X                       X                                 4 ^ 4 B M.m.! L G s G b.:.b.R R c.n.W %       X X X * * * * - - ",
"    X X                   X - - * X             X X X X X         T V V c.=.~ D d H =.b.) >.v.E c.m.M.C     * * X X * - - - * * ",
"    * * X X               X - - * X             X * X X X X       C D C R D R T H $.m.m.4.,.m.c.c.m.m.D +   * * * * - - - - * * ",
"  X * - X               X X X X X           X X * X X X * * X X   + n T 7 R D L d #.=.,.) b.n.^ ! ! ^ 7   X X * * - - - - - - * ",
"    * * * X X X         X X             X X X * * * X * - - * X X X O 2 D c.T R s d $.;.,.b.n.R T C 6   X X X * - - * * * - * * ",
"    * - j - X                           X X * - * * - * - * - * X X   R n.n.R v.E u d #.-.m.=.T T 7       * * - - - * X X * * * ",
"    * * - - X                       X X X * * - * * - - * * * - * X X n.m.n.R n.b.J u d %.m.=.D n O     X X * - - - * X X X X * ",
"  X * - * X X X                       X * - * X * * * * * * * * X * X R m.R T W <.1.a u G E R D 4           X * * * - * * X X X ",
"    - - X X X X     X               X X * - * * * * * * * * X X * X X V ! T R Q 1.Q.a u i L D 7               X * * - - - * * X ",
"  X j j *   X X X X - - X               * * * - - - * * * - * X X X X X 7 T T Q 2.!...u i Z D 9 * X           X * * * - - - * X ",
"  X j j * X X X   X - j *               X * - - - * X / } x * * * X * X 4 T T Q <.X.s u i T B > * X           X X X * * * - * * ",
"  X - - * * X     X - - * X             * * * * X X D.Y.Y.Y.0 X * * * X   T T D K s u u Z D 8 - X               X X X X X X X X ",
"    * - - * X X   X X - * * X           X * X * X r U.K.J.J.x.* * - X       6 D s u u i C 5 * * X                 X X X X X X X ",
"    * - l - *       X X * *             X X X X X ` D.H.'.O.z.* * X X           y u y 6                             X X X X X * ",
"    X * l j * X X     X * * X           X X X X * F.K.f.'.O.Y r X X X X       . u d y .                                   X X X ",
"    X * l j *   X X     X             X X X v r.b L.K.7. X+.A M = = X   X       # u #                                       X X ",
"    X X - - X X X X                 X X X * r.}.=XoXOXW.Y p I h 4X3XX X   X     . y .                                         X ",
"        X X X X X X                 X * j j ; [ e..X;X%XE.h.4.4X}.<       X     o u X X               X X X                     ",
"            X X                     X - j l [ x.k.(.=X;X>Xs.E.oX{.            X % u X X             X X * * X                   ",
"                          X X       X X * * g.D.{ _ ^.).:X;X=X;X^.5 @         o f p - *               X * - * X   X * * X       ",
"        X X               X   X       X : r l.x.r U _ a._././.=X( z.{ M + + @ h N.Y - *               * - j * * X * - - *       ",
"    X * - - * X                         e z.G.( > * U 7.[.8.x.#X5 _ k.z.k.l.j.L.<X6.- * X             * j l - - * * - - X X X   ",
"    * - l j * X X                       N x.z.N : * q _ $X@XH.z.  w / g.z.x.D.L.R.4.- * X X           * - j - - * * - * * X X X ",
"    - j - * X X X X         X       X o g.x._ 3   X   N F.&XA.J.< X : P ( ( g.k.) % - - * X X       X X * * * X X X * * - * X X ",
"  X j l - X X   X X X   X X * X     X w l.k.M O       M G.@Xs.z.t.X - * w 8 P I i @ * - - * X           X X X X X X X X - * X X ",
"  X - - - X         X * * * - - X   X U x.k.M O     c i.E.f.2X5._.- * * * X   $ f * X * - * X X         X X * - * * X X * * X X ",
"  X * - * X         X * * - z l * X X U x.k.M O   X u.}.+X8.;X).~.- * X * X   $ f X X X * - X X           X * * * X X X X * X X ",
"    X * X           X * - j z l - X   | T.Y.P O   @ { a.=X|.>X>X@.X           $ u X X X X X * X               X X X X X X X X   ",
"    X X X X           X * - l j * *   Z.5X1XV.3   U z.h.a.=X>X>X9.o           # y     X X X X X                     X   X     X ",
"      X * - * X     X X X * * * * X X Z.1X<XP.e 1 l.J.j.q. X-X>X].+         o u #                                               ",
"    X X * * * X         X X X * * X X ' ,XP.:.g } x.z.3.).a.*X-X0.@         # %.. X                                             ",
"  X - - X X X X         X X X X X X   % Y I c y.e.k.g.7.d.C.'.*X_ @ X X X   # &.o * X           X * * * X       X X             ",
"  X j - *   X               X X X         . t +.).).p.oXS.J.`.w.k.> * * * X o %.= * X           X * - - X X   X X X X           ",
"  X - - * X                 X X               [ 0.p.).;XS.G..XA.z.> X * - - , d = X X X           * - l - *                     ",
"  X - - * X X               X               @ l.z.g.#X}.4.D..XH.g.> * - - j ; u o X X X   X X X   X - - - * X                   ",
"  X j j *                     X             U z.x.8.oXp.h.D..XH.g.> * - * : f & * X X X X X X X     X X X X                     ",
"    - - X                                 M l.x.z.3._.].3.k.`.H.g.> - - - - f & - * * X * X X                       X X         ",
"    * * X       X X                     0 g.x.I.D.z.5.9.].0.(.B.g.> - - - - u & j j - * * * X X         X X     X * - - - * X   ",
"    X X     X X X X X                   U x.J.J.J.D.g. .7.`.4.g.g.> - - - * u & l l j - * * X           X X     X - l l - - X X ",
"            X X X               X X X 0 j.J.J.x.J.z.g.g.h.9._.q.g.> * * * * y & - j - * X X X X                 X * - j * X X X ",
"          X * * X         X X * - * X U x.x.J.J.J.G.D.F.h._ 5.=XXXt * * X o u * * - * X X X             X X   X X X * * X X X X ",
"          X - - * X     X * * - l j : ] G.G.k.k.g.D.G.G.D.z.z.0.^.1 - - X o y X X X X X X               * * * * * * * X X X X X ",
"          X - - * X     X * - - j - > / k.k.g.g.x.D.G.g.g.g.g.g.g.> * * X o y X X X X X X               * - - - * X X X X X   X ",
"            X X X   X X X * * X * * @ q w r w q 8 8 8 8 5 8 8 8 5 X X X X X o X X X X X               X * * X X X X X   X   X X ",
"X                     X * * X X X X X X - - X                   X X X X X X * X X X                 X X * * X X X X X X X X X X "
};
