/* XPM */
static char *_c06cba6559b4ee8c739d7a5c0946bf5i1vy9flocE7I4o9l[] = {
/* columns rows colors chars-per-pixel */
"64 64 94 2 ",
"   c #0B001E",
".  c #14011C",
"X  c #1A011A",
"o  c #060224",
"O  c #0C0224",
"+  c #07062A",
"@  c #0A0428",
"#  c #07092D",
"$  c #0B092E",
"%  c #150424",
"&  c #190422",
"*  c #15072C",
"=  c #1A072B",
"-  c #14082E",
";  c #1A092F",
":  c #070B30",
">  c #0C0B31",
",  c #0E0F38",
"<  c #140A31",
"1  c #1B0B33",
"2  c #160F38",
"3  c #1D0E39",
"4  c #0E113B",
"5  c #13123D",
"6  c #1E113E",
"7  c #240733",
"8  c #2D0533",
"9  c #230934",
"0  c #210F3A",
"q  c #270F3D",
"w  c #250F3E",
"e  c #2B0B3A",
"r  c #280C3B",
"t  c #290E3E",
"y  c #320332",
"u  c #340230",
"i  c #350231",
"p  c #340331",
"a  c #300434",
"s  c #310434",
"d  c #300735",
"f  c #320637",
"g  c #380234",
"h  c #380235",
"j  c #390235",
"k  c #380335",
"l  c #330638",
"z  c #320639",
"x  c #35053B",
"c  c #37053A",
"v  c #34073E",
"b  c #38043B",
"n  c #39053D",
"m  c #3A053D",
"M  c #39073E",
"N  c #35083D",
"B  c #34093D",
"V  c #22103C",
"C  c #21113E",
"Z  c #23103E",
"A  c #25113E",
"S  c #40023D",
"D  c #40033D",
"F  c #41033D",
"G  c #0F1441",
"H  c #0F1541",
"J  c #131440",
"K  c #131441",
"L  c #131541",
"P  c #171440",
"I  c #1E1341",
"U  c #1A1440",
"Y  c #1A1441",
"T  c #1B1441",
"R  c #280F41",
"E  c #2D0F40",
"W  c #2D0F41",
"Q  c #3B0741",
"!  c #3D0641",
"~  c #3C0741",
"^  c #320B40",
"/  c #360B40",
"(  c #370A41",
")  c #380941",
"_  c #201141",
"`  c #201341",
"'  c #211341",
"]  c #241341",
"[  c #251341",
"{  c #271341",
"}  c #2B1040",
"|  c #440441",
" . c #450441",
".. c #450541",
/* pixels */
"i y i g M  . .F i i i h | Q R } M ~ t t ..F g d t A [ } ~ ~ W t s i i i y i y g F Q } W ~ ~ W W ~ F g g F F g u u k F F ..F t { ",
"i y s l M Q Q v l s s s x v t W B B t t B x d d A A [ W ) B R w 8 8 s s s 8 s s h B W } ) ( t 0 B b s s x x d 8 y d m b M B V Z ",
"i s e t } } ' I w t 7 7 9 9 A A r 7 0 9 9 9 7 9 A A [ A 9 9 A A 0 9 0 0 9 9 t e 9 r A [ } t 0 9 9 9 7 7 9 9 9 9 9 9 9 9 7 7 * @ ",
"g l t [ ] I K K U 3 3 1 1 0 0 0 2 1 1 1 6 ; 1 1 V Z A 0 3 < 3 3 1 < 0 0 3 3 0 Z 3 1 6 Z Z Z 3 1 1 9 ; ; 9 ; 1 1 1 1 0 ; 1 * O   ",
"F M W [ [ I K K K K 6 Z A 0 3 3 5 5 6 V 0 0 1 1 1 3 3 1 < > 4 > > < 3 1 0 0 3 1 1 1 5 5 2 9 0 0 1 9 ; 1 9 1 V V Z Z Z 0 1 ; o o ",
"..~ W ' ' I K K K U 3 w A 0 1 2 5 5 6 V V 0 0 1 1 ; 1 < $ # : # # $ * ; 3 3 1 ; 1 1 5 5 3 1 0 0 3 1 1 2 1 3 V A Z Z ' A 3 * @   ",
"..~ W ' 5 K I I I 6 3 3 9 2 5 2 2 1 1 0 9 3 6 3 1 ; $ $ + + # # + o @ @ $ , > > < 3 6 3 1 1 1 0 Z 6 5 5 V 6 3 1 1 6 5 5 1 * o   ",
"..Q R U K K ` ] Z Z 9 1 1 2 G 5 1 9 ; ; 1 1 Z Z 0 ; $ + o o # + o o o + # # $ $ - 3 3 0 0 1 1 1 0 6 5 K 6 6 3 1 2 < 4 5 2 * @   ",
"..( 6 5 H L Z V 3 1 1 9 0 6 5 5 1 1 1 ; 1 9 Z Z 3 ; + o + + @ o o o + # # # + @ $ < < V 0 0 1 1 1 2 4 4 K 6 V 6 5 5 4 5 2 ; O   ",
"~ B 6 5 L 5 6 V 9 1 1 3 Z I U 5 2 1 1 9 1 1 0 V 1 = @ o + # o o o @ $ > > $ + o # > 1 1 0 0 9 1 1 3 5 5 K 5 6 V 5 5 5 5 2 = O   ",
"} t 3 2 6 6 0 1 1 1 0 Z ] ` I ` ` V 1 ; ; 1 1 1 ; ; @ O # # o o * ; 1 < < < $ # # > < 1 1 1 1 1 9 1 1 6 6 6 3 1 2 1 6 6 3 = . . ",
"] Z 3 6 Z Z 1 ; 1 1 0 A Z Z Z Z Z 0 1 1 1 - 1 ; < ; @ + $ # @ @ * ; 1 ; < < > > > - 1 1 1 9 1 ; ; 1 1 6 6 Z 3 3 3 0 6 0 1 = . . ",
"] ] A w 0 1 1 9 ; ; 1 0 3 1 V 0 Z V V 1 < > > > ; < $ $ - - ; ; 1 ; 1 ; < > > > < < 1 1 6 0 1 1 1 1 0 V [ ' A Z V V 3 1 1 ; O   ",
"} } A 0 1 1 ; 1 1 9 ; 1 ; ; ; 1 3 V 1 1 < # > > - - > > 1 ; 1 1 1 1 1 1 > > , < 1 1 1 1 0 0 1 1 1 3 0 A A A Z Z A V 1 9 ; = %   ",
"m B 9 3 1 ; ; ; 1 9 1 ; 1 < $ < 1 1 7 1 < < > # @ @ # > < 1 ; 3 0 0 1 1 1 1 2 3 1 1 1 1 1 9 1 1 0 0 3 0 V A 3 3 A Z 3 ; 1 = . . ",
"..M 7 < 1 < 1 1 ; ; ; 1 ; < > > * 1 1 1 1 < $ # o + $ < ; 1 1 < 0 0 1 1 ; 1 0 0 1 1 9 1 1 ; 1 3 0 0 1 1 0 0 1 1 V 6 < < ; = X X ",
"..M 1 > > > > < 1 ; 1 < < > : > < 3 0 0 1 ; @ o + $ < 1 ; < > < < 3 1 1 1 1 1 3 V Z 0 0 1 1 < < Z Z 3 1 1 1 1 1 9 1 < > > $ . X ",
"m l 1 : # # # $ < < 1 - > : > > ; 1 Z 3 1 ; @ + # $ < < 1 < > > - ; 1 < 1 1 ; 3 6 I Z 0 1 < 4 < 2 3 1 1 ; 1 1 1 < - > : # @ . . ",
"g 8 < # + o + + $ > > > : : : > 1 1 1 1 1 < $ + o + $ > $ > > > > > > > 4 5 < 1 5 5 3 1 1 1 < < < > > > < 1 1 < < > : # o o     ",
"g 8 < # o o o o + # # # > > , > < 1 1 9 1 < < $ @ @ $ > > > > > > > > , 4 2 3 3 5 5 < 1 ; 1 1 < > > > > ; < 1 < > : # + o o     ",
"m x < # o o o o o o o @ < < 4 4 1 1 0 0 1 1 ; ; ; $ $ > < < < ; 1 2 4 4 < 2 V V 3 1 1 1 > > > > < < > > > > > > : # o o o     . ",
"F v < # + o o o o   o o - < 5 K 3 1 0 0 9 1 1 < 1 < $ $ - ; < 1 1 < 5 5 3 6 6 6 1 ; < - > : $ $ < 1 > > : # : : > $ o o o O . X ",
"i 8 < : # # + + o o o o $ , 4 4 < 1 1 9 1 1 1 ; > $ @ o @ @ $ < ; 3 V Z Z 6 K 5 3 1 < > > # o @ ; < 1 < > > : > < - @ o + +     ",
"g 8 < > : : > $ + o o o # : 5 5 1 1 1 3 9 1 1 < - $ @ o o o # > ; 1 V Z Z 6 5 5 < < > # # @ + @ * 1 ; < > > > < < $ @ + # + o o ",
" .x < : : > < < $ + o o # , 5 w 3 1 3 Z V V 1 ; 1 ; - * O o # > < 1 1 1 V 3 5 4 2 < > $ + o # $ ; ; < $ < ; < < < > # # # # o o ",
" .m 1 > > < < 1 > # + + : , 5 w 3 3 Z Z V V 9 1 ; 1 ; $ @ @ # < ; 1 9 1 ; 1 5 4 < - $ + + + + - - 5 < $ < < 1 1 > : > $ > $ o o ",
" .Q 7 < 1 * 1 < > : # : 4 4 G K K 5 6 Z V 1 1 1 1 < - # # # - 1 1 ; ; ; ; 2 5 4 , $ @ o + + + $ 2 V 1 - > < 1 < > > < ; ; * @   ",
"m x 7 1 < ; 1 1 > > > > 4 4 G G 5 5 6 V 1 1 ; ; 1 < < > > < < 1 1 1 3 1 1 1 5 4 > # o o # # @ @ 3 0 3 6 > > < < > < 1 6 1 - O   ",
"g s 7 < < > 1 < > > < < 1 2 5 K U 6 V 1 1 ; 1 1 $ < - - < 1 1 ; 1 1 3 V 1 1 1 - @ o o o # $ * ; 1 0 0 3 , $ > > < 1 0 0 1 = . . ",
"g 8 7 < < > < < > > < < 1 1 5 U 6 Z 1 1 ; 1 ; < > < 1 1 < ; ; 1 ; 1 3 3 3 ; ; ; @ o o + $ < < 1 1 1 0 3 < $ > < 1 1 0 0 1 = X X ",
" .z < > < < > # > : > < < 3 3 _ 6 1 1 < < < < 1 1 1 3 6 < < < < $ < 1 6 1 1 1 ; $ # # $ < < < 1 ; 1 1 1 1 3 2 3 1 1 1 1 1 = & X ",
" .m 1 > < 1 > > > > : > < 1 w 3 1 1 9 1 , < 1 ; 1 6 V 6 , < 1 ; > < ; 9 ; ; 1 < > > > < < < ; - ; 1 - 1 1 1 0 0 1 1 1 ; 1 = . . ",
"..B 1 > < < > > < < > > 1 1 1 1 1 1 V Z 6 3 1 - ; 1 Z Z 1 1 1 ; 1 ; 1 ; 9 ; 1 ; > > < < $ $ @ @ > > > < 1 1 1 1 1 1 < > 1 * %   ",
"~ B 1 > < < > > < < > > - ; 1 1 1 1 V Z V V V 6 0 0 0 0 3 9 1 1 ; 1 1 ; ; 1 1 1 > > < < < $ o o + $ > > < 1 < ; * - > > < = O   ",
"W R 1 < > > # > : > > : > > ; 1 1 9 V V 0 3 Z Z 0 0 3 1 0 0 1 1 1 1 ; 1 1 ; ; 1 > > > > < * o o o @ * < > > > $ @ @ $ > < = . . ",
"[ 0 1 1 < > > > > : > $ 4 < < 1 1 1 0 V 9 3 6 I 6 6 1 3 Z 0 1 1 1 ; < < 1 < 1 ; > > > > < * @ o o @ @ * $ # # # @ @ # > 1 = X . ",
"[ 0 0 1 < < 1 < > > < 5 2 6 - > ; 1 1 V V 6 5 K K 5 3 1 0 Z 3 < < > > > $ > 1 ; 1 < $ > > > # + o o @ @ o o $ > - - $ > < * %   ",
"t 0 1 1 ; 1 ; < > < 1 3 V 6 < > 1 2 = 9 Z U 5 K K 5 1 0 6 w 1 1 > > > > > < < 1 ; 1 > > > : > $ O o @ O * @ $ > - 6 > > 1 * O   ",
"8 8 7 ; > > > < - 1 3 0 9 ; 1 ; 0 6 1 V Z 6 K K 5 6 1 3 [ w 1 < > > < < ; 1 1 ; 1 ; < * > > < ; ; * * * 1 2 1 3 6 3 > > 1 = . . ",
"i s 7 < < > > $ 1 1 V 3 3 6 1 6 V V 1 1 Z Z U 5 Z 6 9 3 0 9 1 1 $ > < ; 1 ; 1 1 1 0 1 5 < > ; 1 1 1 1 1 3 0 3 9 V 3 , $ - % X X ",
"F x 7 1 < < < 1 = 1 1 0 0 V A Z ; 1 1 1 1 6 V 6 3 0 0 0 1 1 1 * > > > > < 1 1 6 0 V V V < 1 1 1 ; 1 < > 1 3 V V 3 1 > $ @ O X X ",
"~ B 9 1 ; 1 ; 1 1 1 1 6 6 V ` A 9 1 ; 1 1 < 2 6 1 1 0 0 1 1 1 1 > > > > - 1 ; 1 0 V V 0 1 1 < ; 1 1 > > - 1 3 V 1 ; > # o o . . ",
"R t 0 ; < > ; 1 0 0 1 ; 5 6 I 6 3 ; ; ; > > < < 1 1 1 1 1 1 1 < > : > : > > 1 ; 1 3 ; 1 1 1 < > ; 1 ; < $ < 2 1 1 < > $ o       ",
"( t 1 1 > < 1 1 V V V 2 5 5 U Z 3 1 9 1 < > # > < * ; * ; ; * * > : > > > > ; 1 1 1 1 1 < < > > - < 1 1 > < ; 1 < - $ @ o       ",
"~ B 9 < 1 ; 1 1 1 V V 6 L L 6 A A V 1 ; 1 < # > > $ @ @ o @ @ @ # > - < > > 1 2 5 2 1 ; > > > # > < < 1 ; < 1 < - # + o o     X ",
"F x 7 ; < 1 1 ; ; 9 6 6 5 5 Z V Z V 2 1 1 < > : : $ @ @ o o o o # > 1 ; > > - 5 5 5 2 < > # # $ > > < ; 1 < ; < > $ o o o o . X ",
"g s 9 ; < > ; 1 1 1 1 6 Z Z 3 V A 6 5 $ 1 < > > : > * * @ @ o + # > 1 1 1 1 5 5 6 6 3 ; > # + @ - < > > > < > > < ; O o @ O . X ",
"i 8 7 1 > > < ; = 1 1 1 V V 1 1 V 6 < > < < < > > > < < $ $ o o # > < 1 1 5 5 5 6 V 1 ; $ # o @ $ < < > > > > < 1 < @ + # @   . ",
"i 8 9 ; ; < < < 1 ; 1 1 1 1 1 1 1 1 > < < 1 1 < ; < - $ o o o o $ > < 1 Z 6 5 5 6 1 1 - @ o # $ $ > < 1 1 < 1 1 3 3 > $ : # o   ",
"s 8 1 ; < < > > < < ; 1 ; < ; 1 1 < $ $ - 1 ; 1 1 < > $ + o o o $ > < 3 6 ' 5 5 3 1 < < @ + + # > < ; 1 1 1 1 3 0 6 < $ : # o o ",
"t 0 < > > < < < < > 1 1 < < 1 1 1 * @ @ $ < < ; 1 < 1 < $ + o @ * < > 2 6 Z 3 1 3 3 < > # # o @ - < 1 1 V V V 0 3 1 ; - $ + @ o ",
"A 6 , > > > < ; > > - < $ > < ; 1 - @ @ $ > 1 1 1 - ; - > # o @ * < > < 2 0 0 3 0 3 < > > $ + @ - ; ; 3 Z A A 0 3 1 0 1 - $ o   ",
"[ A 1 ; < < ; 1 > > > > < < < > < < $ $ - < 1 < $ $ @ @ $ : $ # $ > # > 3 3 3 0 3 1 1 1 1 - $ # > > 1 3 V V 3 1 0 V V V 6 = . . ",
"I w 3 < ; 1 1 < $ > > > < 1 < $ - ; > > < ; ; - > $ @ @ $ > > > > > > < 1 3 0 Z 3 ; 1 1 1 < > > > < ; 1 V V V 1 0 V V 0 1 = . . ",
"[ Z , < 1 < < > < < > > ; 1 1 - @ @ # : > $ @ @ $ > * * < ; 1 1 < ; < 3 0 Z w 0 1 1 V 0 1 1 > > < < 1 3 Z V 1 1 1 3 6 1 1 = O   ",
"' 6 < > ; < > > 1 < > > < ; 1 ; @ o # # # + + o # > < 1 1 1 1 1 1 1 1 1 0 ' A 0 0 0 0 3 < < > > < ; < 1 6 3 1 1 1 = ; 1 - = O   ",
"Z 6 4 > ; 1 > > < 1 > > 1 1 ; ; # # o o o + + # # > ; 1 1 1 V V 1 1 ; 3 0 A 3 0 0 0 3 1 - > > # # > 1 < , < < < $ < < < < - . . ",
"q 6 < > < < > < < ; > - < < 1 < : # o o o o + $ > > < < ; 1 6 Z 3 9 1 3 0 A 0 1 0 0 1 ; < , > > > > < < $ > < < > > < < > + . X ",
"8 9 > > > > - < 1 1 ; < > > > > : # o   o o o @ ; < > > > < Z Z A 0 1 9 0 ' A 0 V 1 1 1 6 2 1 < > > > > > > > > # : > > # $ . X ",
"s 8 < : > > 1 ; ; < 1 < > > > # # + o o o o o o - < > # , < 2 Z A V 3 1 0 Z 0 0 3 9 1 1 6 V 3 ; > # > > > > > > > > > : : $ . . ",
"A 6 $ # # > ; ; < $ ; 1 1 - > # o o o o + + o o $ > : > - 1 1 3 Z V 3 1 1 1 1 0 V V 1 3 Z Z 6 < > $ < 1 ; > > # < < : # : $ @   ",
"Z 6 < # $ + - - - $ * = = = $ + o     o + o o o + + + $ * * ; ; 1 9 = = ; ; = ; 1 1 ; ; 1 ; = * - $ - ; - = $ - - - # # # +     ",
"6 ; + @ + O . . . . % O . . X .     . . . .   o o O . % o @ O % & & X . O % . & @ @ O % & & O % .   O O O O . . O o o o +   . . ",
"= * @       . X X .     . X X .     . X X .   o     X .     o   X X X X     . .   o     . .     . .     o   . .   o         . X "
};
